G04 DesignSpark PCB PRO Gerber Version 10.0 Build 5299*
G04 #@! TF.Part,Single*
G04 #@! TF.FileFunction,Drillmap*
G04 #@! TF.FilePolarity,Positive*
%FSLAX35Y35*%
%MOIN*%
%ADD15C,0.00500*%
G04 #@! TA.AperFunction,ViaPad*
%ADD16C,0.10000*%
G04 #@! TD.AperFunction*
X0Y0D02*
D02*
D15*
X157349Y74844D02*
X158287D01*
Y74532D01*
X157974Y73907D01*
X157662Y73594D01*
X157037Y73282D01*
X156412D01*
X155787Y73594D01*
X155474Y73907D01*
X155162Y74532D01*
Y75782D01*
X155474Y76407D01*
X155787Y76720D01*
X156412Y77032D01*
X157037D01*
X157662Y76720D01*
X157974Y76407D01*
X158287Y75782D01*
X157349Y137344D02*
X158287D01*
Y137032D01*
X157974Y136407D01*
X157662Y136094D01*
X157037Y135782D01*
X156412D01*
X155787Y136094D01*
X155474Y136407D01*
X155162Y137032D01*
Y138282D01*
X155474Y138907D01*
X155787Y139220D01*
X156412Y139532D01*
X157037D01*
X157662Y139220D01*
X157974Y138907D01*
X158287Y138282D01*
X157349Y164844D02*
X158287D01*
Y164532D01*
X157974Y163907D01*
X157662Y163594D01*
X157037Y163282D01*
X156412D01*
X155787Y163594D01*
X155474Y163907D01*
X155162Y164532D01*
Y165782D01*
X155474Y166407D01*
X155787Y166720D01*
X156412Y167032D01*
X157037D01*
X157662Y166720D01*
X157974Y166407D01*
X158287Y165782D01*
X165615Y97534D02*
Y101284D01*
Y99409D02*
X168740D01*
Y97534D02*
Y101284D01*
X166441Y117819D02*
Y114069D01*
X169567D01*
X167662Y153282D02*
Y157032D01*
Y155157D02*
X168599D01*
X170787Y157032D01*
X168599Y155157D02*
X170787Y153282D01*
X180162Y83282D02*
Y87032D01*
X183287D01*
X182662Y85157D02*
X180162D01*
Y83282D02*
X183287D01*
X180162Y140782D02*
Y144532D01*
X183287D01*
X182662Y142657D02*
X180162D01*
Y140782D02*
X183287D01*
X188386Y68093D02*
X189324D01*
Y67780D01*
X189011Y67155D01*
X188699Y66843D01*
X188074Y66530D01*
X187449D01*
X186824Y66843D01*
X186511Y67155D01*
X186199Y67780D01*
Y69030D01*
X186511Y69655D01*
X186824Y69968D01*
X187449Y70280D01*
X188074D01*
X188699Y69968D01*
X189011Y69655D01*
X189324Y69030D01*
X187662Y153282D02*
Y157032D01*
Y155157D02*
X188599D01*
X190787Y157032D01*
X188599Y155157D02*
X190787Y153282D01*
X197349Y164844D02*
X198287D01*
Y164532D01*
X197974Y163907D01*
X197662Y163594D01*
X197037Y163282D01*
X196412D01*
X195787Y163594D01*
X195474Y163907D01*
X195162Y164532D01*
Y165782D01*
X195474Y166407D01*
X195787Y166720D01*
X196412Y167032D01*
X197037D01*
X197662Y166720D01*
X197974Y166407D01*
X198287Y165782D01*
X198370Y67843D02*
X199308D01*
Y67530D01*
X198996Y66906D01*
X198683Y66593D01*
X198058Y66280D01*
X197433D01*
X196808Y66593D01*
X196496Y66906D01*
X196183Y67530D01*
Y68780D01*
X196496Y69406D01*
X196808Y69718D01*
X197433Y70030D01*
X198058D01*
X198683Y69718D01*
X198996Y69406D01*
X199308Y68780D01*
X205162Y108282D02*
Y112032D01*
X208287D01*
X207662Y110157D02*
X205162D01*
Y108282D02*
X208287D01*
X205162Y125782D02*
Y129532D01*
X208287D01*
X207662Y127657D02*
X205162D01*
Y125782D02*
X208287D01*
X207672Y93941D02*
X207984Y93628D01*
X208609Y93315D01*
X209234Y93628D01*
X209547Y93941D01*
Y97065D01*
X210172D01*
X209547D02*
X208297D01*
X207672Y153941D02*
X207984Y153628D01*
X208609Y153315D01*
X209234Y153628D01*
X209547Y153941D01*
Y157065D01*
X210172D01*
X209547D02*
X208297D01*
X212662Y64532D02*
Y68282D01*
X215787D01*
X215162Y66407D02*
X212662D01*
Y64532D02*
X215787D01*
X217672Y93941D02*
X217984Y93628D01*
X218609Y93315D01*
X219234Y93628D01*
X219547Y93941D01*
Y97065D01*
X220172D01*
X219547D02*
X218297D01*
X217672Y153941D02*
X217984Y153628D01*
X218609Y153315D01*
X219234Y153628D01*
X219547Y153941D01*
Y157065D01*
X220172D01*
X219547D02*
X218297D01*
X223912Y64532D02*
Y68282D01*
X227037D01*
X226412Y66407D02*
X223912D01*
Y64532D02*
X227037D01*
X227672Y93941D02*
X227984Y93628D01*
X228609Y93315D01*
X229234Y93628D01*
X229547Y93941D01*
Y97065D01*
X230172D01*
X229547D02*
X228297D01*
X227672Y153941D02*
X227984Y153628D01*
X228609Y153315D01*
X229234Y153628D01*
X229547Y153941D01*
Y157065D01*
X230172D01*
X229547D02*
X228297D01*
X233912Y64532D02*
Y68282D01*
X237037D01*
X236412Y66407D02*
X233912D01*
Y64532D02*
X237037D01*
X237349Y164844D02*
X238287D01*
Y164532D01*
X237974Y163907D01*
X237662Y163594D01*
X237037Y163282D01*
X236412D01*
X235787Y163594D01*
X235474Y163907D01*
X235162Y164532D01*
Y165782D01*
X235474Y166407D01*
X235787Y166720D01*
X236412Y167032D01*
X237037D01*
X237662Y166720D01*
X237974Y166407D01*
X238287Y165782D01*
X237672Y93941D02*
X237984Y93628D01*
X238609Y93315D01*
X239234Y93628D01*
X239547Y93941D01*
Y97065D01*
X240172D01*
X239547D02*
X238297D01*
X237672Y153941D02*
X237984Y153628D01*
X238609Y153315D01*
X239234Y153628D01*
X239547Y153941D01*
Y157065D01*
X240172D01*
X239547D02*
X238297D01*
X243912Y64532D02*
Y68282D01*
X247037D01*
X246412Y66407D02*
X243912D01*
Y64532D02*
X247037D01*
X247672Y93941D02*
X247984Y93628D01*
X248609Y93315D01*
X249234Y93628D01*
X249547Y93941D01*
Y97065D01*
X250172D01*
X249547D02*
X248297D01*
X247672Y153941D02*
X247984Y153628D01*
X248609Y153315D01*
X249234Y153628D01*
X249547Y153941D01*
Y157065D01*
X250172D01*
X249547D02*
X248297D01*
X251412Y64532D02*
Y68282D01*
X254537D01*
X253912Y66407D02*
X251412D01*
Y64532D02*
X254537D01*
X254849Y137344D02*
X255787D01*
Y137032D01*
X255474Y136407D01*
X255162Y136094D01*
X254537Y135782D01*
X253912D01*
X253287Y136094D01*
X252974Y136407D01*
X252662Y137032D01*
Y138282D01*
X252974Y138907D01*
X253287Y139220D01*
X253912Y139532D01*
X254537D01*
X255162Y139220D01*
X255474Y138907D01*
X255787Y138282D01*
X257672Y93941D02*
X257984Y93628D01*
X258609Y93315D01*
X259234Y93628D01*
X259547Y93941D01*
Y97065D01*
X260172D01*
X259547D02*
X258297D01*
X257672Y153941D02*
X257984Y153628D01*
X258609Y153315D01*
X259234Y153628D01*
X259547Y153941D01*
Y157065D01*
X260172D01*
X259547D02*
X258297D01*
X261412Y64532D02*
Y68282D01*
X264537D01*
X263912Y66407D02*
X261412D01*
Y64532D02*
X264537D01*
X267672Y93941D02*
X267984Y93628D01*
X268609Y93315D01*
X269234Y93628D01*
X269547Y93941D01*
Y97065D01*
X270172D01*
X269547D02*
X268297D01*
X267672Y153941D02*
X267984Y153628D01*
X268609Y153315D01*
X269234Y153628D01*
X269547Y153941D01*
Y157065D01*
X270172D01*
X269547D02*
X268297D01*
X268912Y64532D02*
Y68282D01*
X272037D01*
X271412Y66407D02*
X268912D01*
Y64532D02*
X272037D01*
X274849Y137344D02*
X275787D01*
Y137032D01*
X275474Y136407D01*
X275162Y136094D01*
X274537Y135782D01*
X273912D01*
X273287Y136094D01*
X272974Y136407D01*
X272662Y137032D01*
Y138282D01*
X272974Y138907D01*
X273287Y139220D01*
X273912Y139532D01*
X274537D01*
X275162Y139220D01*
X275474Y138907D01*
X275787Y138282D01*
X277349Y164844D02*
X278287D01*
Y164532D01*
X277974Y163907D01*
X277662Y163594D01*
X277037Y163282D01*
X276412D01*
X275787Y163594D01*
X275474Y163907D01*
X275162Y164532D01*
Y165782D01*
X275474Y166407D01*
X275787Y166720D01*
X276412Y167032D01*
X277037D01*
X277662Y166720D01*
X277974Y166407D01*
X278287Y165782D01*
X276412Y64532D02*
Y68282D01*
X279537D01*
X278912Y66407D02*
X276412D01*
Y64532D02*
X279537D01*
X277672Y93941D02*
X277984Y93628D01*
X278609Y93315D01*
X279234Y93628D01*
X279547Y93941D01*
Y97065D01*
X280172D01*
X279547D02*
X278297D01*
X277672Y153941D02*
X277984Y153628D01*
X278609Y153315D01*
X279234Y153628D01*
X279547Y153941D01*
Y157065D01*
X280172D01*
X279547D02*
X278297D01*
X281412Y64532D02*
Y68282D01*
X284537D01*
X283912Y66407D02*
X281412D01*
Y64532D02*
X284537D01*
X282662Y128282D02*
Y132032D01*
X285787D01*
X285162Y130157D02*
X282662D01*
Y128282D02*
X285787D01*
X287672Y93941D02*
X287984Y93628D01*
X288609Y93315D01*
X289234Y93628D01*
X289547Y93941D01*
Y97065D01*
X290172D01*
X289547D02*
X288297D01*
X287672Y153941D02*
X287984Y153628D01*
X288609Y153315D01*
X289234Y153628D01*
X289547Y153941D01*
Y157065D01*
X290172D01*
X289547D02*
X288297D01*
X290162Y64532D02*
Y68282D01*
X293287D01*
X292662Y66407D02*
X290162D01*
Y64532D02*
X293287D01*
X294849Y137344D02*
X295787D01*
Y137032D01*
X295474Y136407D01*
X295162Y136094D01*
X294537Y135782D01*
X293912D01*
X293287Y136094D01*
X292974Y136407D01*
X292662Y137032D01*
Y138282D01*
X292974Y138907D01*
X293287Y139220D01*
X293912Y139532D01*
X294537D01*
X295162Y139220D01*
X295474Y138907D01*
X295787Y138282D01*
X297672Y93941D02*
X297984Y93628D01*
X298609Y93315D01*
X299234Y93628D01*
X299547Y93941D01*
Y97065D01*
X300172D01*
X299547D02*
X298297D01*
X297672Y153941D02*
X297984Y153628D01*
X298609Y153315D01*
X299234Y153628D01*
X299547Y153941D01*
Y157065D01*
X300172D01*
X299547D02*
X298297D01*
X300162Y67032D02*
Y70782D01*
X303287D01*
X302662Y68907D02*
X300162D01*
Y67032D02*
X303287D01*
X306412Y73282D02*
Y77032D01*
X309537D01*
X308912Y75157D02*
X306412D01*
Y73282D02*
X309537D01*
X307662Y119532D02*
Y123282D01*
X310787D01*
X310162Y121407D02*
X307662D01*
Y119532D02*
X310787D01*
X307662Y124532D02*
Y128282D01*
X310787D01*
X310162Y126407D02*
X307662D01*
Y124532D02*
X310787D01*
X307672Y93941D02*
X307984Y93628D01*
X308609Y93315D01*
X309234Y93628D01*
X309547Y93941D01*
Y97065D01*
X310172D01*
X309547D02*
X308297D01*
X307672Y153941D02*
X307984Y153628D01*
X308609Y153315D01*
X309234Y153628D01*
X309547Y153941D01*
Y157065D01*
X310172D01*
X309547D02*
X308297D01*
X310162Y77032D02*
Y80782D01*
X313287D01*
X312662Y78907D02*
X310162D01*
Y77032D02*
X313287D01*
X311412Y69532D02*
Y73282D01*
X314537D01*
X313912Y71407D02*
X311412D01*
Y69532D02*
X314537D01*
X314849Y137344D02*
X315787D01*
Y137032D01*
X315474Y136407D01*
X315162Y136094D01*
X314537Y135782D01*
X313912D01*
X313287Y136094D01*
X312974Y136407D01*
X312662Y137032D01*
Y138282D01*
X312974Y138907D01*
X313287Y139220D01*
X313912Y139532D01*
X314537D01*
X315162Y139220D01*
X315474Y138907D01*
X315787Y138282D01*
X313912Y87032D02*
Y90782D01*
X317037D01*
X316412Y88907D02*
X313912D01*
Y87032D02*
X317037D01*
X317349Y164844D02*
X318287D01*
Y164532D01*
X317974Y163907D01*
X317662Y163594D01*
X317037Y163282D01*
X316412D01*
X315787Y163594D01*
X315474Y163907D01*
X315162Y164532D01*
Y165782D01*
X315474Y166407D01*
X315787Y166720D01*
X316412Y167032D01*
X317037D01*
X317662Y166720D01*
X317974Y166407D01*
X318287Y165782D01*
X317672Y93941D02*
X317984Y93628D01*
X318609Y93315D01*
X319234Y93628D01*
X319547Y93941D01*
Y97065D01*
X320172D01*
X319547D02*
X318297D01*
X317672Y153941D02*
X317984Y153628D01*
X318609Y153315D01*
X319234Y153628D01*
X319547Y153941D01*
Y157065D01*
X320172D01*
X319547D02*
X318297D01*
X327672Y93941D02*
X327984Y93628D01*
X328609Y93315D01*
X329234Y93628D01*
X329547Y93941D01*
Y97065D01*
X330172D01*
X329547D02*
X328297D01*
X327672Y153941D02*
X327984Y153628D01*
X328609Y153315D01*
X329234Y153628D01*
X329547Y153941D01*
Y157065D01*
X330172D01*
X329547D02*
X328297D01*
X334849Y137344D02*
X335787D01*
Y137032D01*
X335474Y136407D01*
X335162Y136094D01*
X334537Y135782D01*
X333912D01*
X333287Y136094D01*
X332974Y136407D01*
X332662Y137032D01*
Y138282D01*
X332974Y138907D01*
X333287Y139220D01*
X333912Y139532D01*
X334537D01*
X335162Y139220D01*
X335474Y138907D01*
X335787Y138282D01*
X336166Y69532D02*
Y73282D01*
X339291D01*
X338666Y71407D02*
X336166D01*
Y69532D02*
X339291D01*
X337672Y93941D02*
X337984Y93628D01*
X338609Y93315D01*
X339234Y93628D01*
X339547Y93941D01*
Y97065D01*
X340172D01*
X339547D02*
X338297D01*
X337672Y153941D02*
X337984Y153628D01*
X338609Y153315D01*
X339234Y153628D01*
X339547Y153941D01*
Y157065D01*
X340172D01*
X339547D02*
X338297D01*
X346099Y73594D02*
X347037D01*
Y73282D01*
X346724Y72657D01*
X346412Y72344D01*
X345787Y72032D01*
X345162D01*
X344537Y72344D01*
X344224Y72657D01*
X343912Y73282D01*
Y74532D01*
X344224Y75157D01*
X344537Y75470D01*
X345162Y75782D01*
X345787D01*
X346412Y75470D01*
X346724Y75157D01*
X347037Y74532D01*
X347672Y93941D02*
X347984Y93628D01*
X348609Y93315D01*
X349234Y93628D01*
X349547Y93941D01*
Y97065D01*
X350172D01*
X349547D02*
X348297D01*
X347672Y153941D02*
X347984Y153628D01*
X348609Y153315D01*
X349234Y153628D01*
X349547Y153941D01*
Y157065D01*
X350172D01*
X349547D02*
X348297D01*
X354849Y137344D02*
X355787D01*
Y137032D01*
X355474Y136407D01*
X355162Y136094D01*
X354537Y135782D01*
X353912D01*
X353287Y136094D01*
X352974Y136407D01*
X352662Y137032D01*
Y138282D01*
X352974Y138907D01*
X353287Y139220D01*
X353912Y139532D01*
X354537D01*
X355162Y139220D01*
X355474Y138907D01*
X355787Y138282D01*
X357349Y164844D02*
X358287D01*
Y164532D01*
X357974Y163907D01*
X357662Y163594D01*
X357037Y163282D01*
X356412D01*
X355787Y163594D01*
X355474Y163907D01*
X355162Y164532D01*
Y165782D01*
X355474Y166407D01*
X355787Y166720D01*
X356412Y167032D01*
X357037D01*
X357662Y166720D01*
X357974Y166407D01*
X358287Y165782D01*
X357672Y93941D02*
X357984Y93628D01*
X358609Y93315D01*
X359234Y93628D01*
X359547Y93941D01*
Y97065D01*
X360172D01*
X359547D02*
X358297D01*
X357672Y153941D02*
X357984Y153628D01*
X358609Y153315D01*
X359234Y153628D01*
X359547Y153941D01*
Y157065D01*
X360172D01*
X359547D02*
X358297D01*
X372349Y73594D02*
X373287D01*
Y73282D01*
X372974Y72657D01*
X372662Y72344D01*
X372037Y72032D01*
X371412D01*
X370787Y72344D01*
X370474Y72657D01*
X370162Y73282D01*
Y74532D01*
X370474Y75157D01*
X370787Y75470D01*
X371412Y75782D01*
X372037D01*
X372662Y75470D01*
X372974Y75157D01*
X373287Y74532D01*
X373599Y111094D02*
X374537D01*
Y110782D01*
X374224Y110157D01*
X373912Y109844D01*
X373287Y109532D01*
X372662D01*
X372037Y109844D01*
X371724Y110157D01*
X371412Y110782D01*
Y112032D01*
X371724Y112657D01*
X372037Y112970D01*
X372662Y113282D01*
X373287D01*
X373912Y112970D01*
X374224Y112657D01*
X374537Y112032D01*
X374849Y137344D02*
X375787D01*
Y137032D01*
X375474Y136407D01*
X375162Y136094D01*
X374537Y135782D01*
X373912D01*
X373287Y136094D01*
X372974Y136407D01*
X372662Y137032D01*
Y138282D01*
X372974Y138907D01*
X373287Y139220D01*
X373912Y139532D01*
X374537D01*
X375162Y139220D01*
X375474Y138907D01*
X375787Y138282D01*
X385890Y98134D02*
Y94384D01*
X389015D01*
X386717Y78636D02*
Y82386D01*
Y80511D02*
X389842D01*
Y78636D02*
Y82386D01*
X388912Y118282D02*
Y122032D01*
X392037D01*
X391412Y120157D02*
X388912D01*
Y118282D02*
X392037D01*
X393912Y150782D02*
Y154532D01*
X397037D01*
X396412Y152657D02*
X393912D01*
Y150782D02*
X397037D01*
X395162Y133282D02*
Y137032D01*
X398287D01*
X397662Y135157D02*
X395162D01*
Y133282D02*
X398287D01*
D02*
D16*
X145162Y67344D03*
Y129844D03*
Y157344D03*
X155615Y91596D03*
X156441Y108132D03*
X157662Y147344D03*
X170162Y77344D03*
Y134844D03*
X176199Y60593D03*
X177662Y147344D03*
X185162Y157344D03*
X186183Y60343D03*
X195162Y102344D03*
Y119844D03*
X197672Y87378D03*
Y147378D03*
X202662Y58594D03*
X207672Y87378D03*
Y147378D03*
X213912Y58594D03*
X217672Y87378D03*
Y147378D03*
X223912Y58594D03*
X225162Y157344D03*
X227672Y87378D03*
Y147378D03*
X233912Y58594D03*
X237672Y87378D03*
Y147378D03*
X241412Y58594D03*
X242662Y129844D03*
X247672Y87378D03*
Y147378D03*
X251412Y58594D03*
X257672Y87378D03*
Y147378D03*
X258912Y58594D03*
X262662Y129844D03*
X265162Y157344D03*
X266412Y58594D03*
X267672Y87378D03*
Y147378D03*
X271412Y58594D03*
X272662Y122344D03*
X277672Y87378D03*
Y147378D03*
X280162Y58594D03*
X282662Y129844D03*
X287672Y87378D03*
Y147378D03*
X290162Y61094D03*
X296412Y67344D03*
X297662Y113594D03*
Y118594D03*
X297672Y87378D03*
Y147378D03*
X300162Y71094D03*
X301412Y63594D03*
X302662Y129844D03*
X303912Y81094D03*
X305162Y157344D03*
X307672Y87378D03*
Y147378D03*
X317672Y87378D03*
Y147378D03*
X322662Y129844D03*
X326166Y63594D03*
X327672Y87378D03*
Y147378D03*
X333912Y66094D03*
X337672Y87378D03*
Y147378D03*
X342662Y129844D03*
X345162Y157344D03*
X347672Y87378D03*
Y147378D03*
X360162Y66094D03*
X361412Y103594D03*
X362662Y129844D03*
X375890Y88447D03*
X376717Y72699D03*
X378912Y112344D03*
X383912Y144844D03*
X385162Y127344D03*
X0Y0D02*
M02*
