G04 DesignSpark PCB PRO Gerber Version 10.0 Build 5299*
G04 #@! TF.Part,Single*
G04 #@! TF.FileFunction,Copper,L2,Bot*
G04 #@! TF.FilePolarity,Positive*
%FSLAX35Y35*%
%MOIN*%
G04 #@! TA.AperFunction,SMDPad,CuDef*
%ADD28R,0.06693X0.35433*%
G04 #@! TA.AperFunction,ComponentPad*
%ADD72R,0.04559X0.04559*%
G04 #@! TD.AperFunction*
%ADD15C,0.00500*%
%ADD23C,0.01000*%
%ADD24C,0.01500*%
G04 #@! TA.AperFunction,ViaPad*
%ADD27C,0.02677*%
%ADD25C,0.03200*%
G04 #@! TA.AperFunction,ComponentPad*
%ADD73C,0.04559*%
G04 #@! TD.AperFunction*
%ADD22C,0.05000*%
G04 #@! TA.AperFunction,SMDPad,CuDef*
%ADD75C,0.06000*%
G04 #@! TD.AperFunction*
X0Y0D02*
D02*
D15*
X139815Y163109D02*
Y50982D01*
X152327D01*
G75*
G02*
X152416Y51146I2993J-1516D01*
G01*
X152813Y51835D01*
Y58594D01*
G75*
G02*
X156166Y61947I3352J0D01*
G01*
X162813D01*
Y69844D01*
G75*
G02*
X163798Y72218I3352J0D01*
G01*
X166809Y75229D01*
Y139844D01*
G75*
G02*
X167794Y142218I3352J0D01*
G01*
X173949Y148373D01*
G75*
G02*
X179500Y150730I3713J-1028D01*
G01*
X197599D01*
G75*
G02*
X201025Y147378I73J-3352D01*
G01*
G75*
G02*
X197599Y144026I-3353J0D01*
G01*
X179618D01*
G75*
G02*
X178690Y143632I-1956J3319D01*
G01*
X173514Y138456D01*
Y73841D01*
G75*
G02*
X172530Y71467I-3352J0D01*
G01*
X169518Y68456D01*
Y51835D01*
X169915Y51146D01*
G75*
G02*
X170004Y50982I-2904J-1680D01*
G01*
X172813D01*
Y60532D01*
G75*
G02*
Y60559I3333J14D01*
G01*
G75*
G02*
X173795Y62930I3352J0D01*
G01*
X173828Y62963D01*
G75*
G02*
X179518Y60122I2370J-2371D01*
G01*
Y50982D01*
X182813D01*
Y60326D01*
G75*
G02*
X183828Y62728I3352J0D01*
G01*
G75*
G02*
X189535Y60343I2355J-2385D01*
G01*
G75*
G02*
X189518Y60005I-3351J-2D01*
G01*
Y50982D01*
X192592D01*
X194563Y54397D01*
Y56030D01*
X191707Y58887D01*
G75*
G02*
X191309Y59844I955J957D01*
G01*
Y91094D01*
G75*
G02*
X191707Y92052I1352J0D01*
G01*
X210454Y110800D01*
G75*
G02*
X211412Y111197I957J-955D01*
G01*
X298361D01*
X299167Y112002D01*
G75*
G02*
X296606Y111675I-1505J1593D01*
G01*
G75*
G02*
X296566Y111697I640J1189D01*
G01*
X295622Y112242D01*
X206972D01*
X197560Y102830D01*
X197278Y101778D01*
G75*
G02*
X197268Y101740I-1309J352D01*
G01*
G75*
G02*
X192971Y102344I-2106J604D01*
G01*
G75*
G02*
X194557Y104450I2191J0D01*
G01*
G75*
G02*
X194595Y104461I389J-1298D01*
G01*
X195648Y104743D01*
X205454Y114550D01*
G75*
G02*
X205696Y114742I957J-956D01*
G01*
X198912D01*
G75*
G02*
X197954Y115139I0J1352D01*
G01*
X195648Y117446D01*
X194595Y117728D01*
G75*
G02*
X194557Y117739I352J1309D01*
G01*
G75*
G02*
X192971Y119844I604J2106D01*
G01*
G75*
G02*
X197268Y120449I2191J0D01*
G01*
G75*
G02*
X197278Y120411I-1298J-389D01*
G01*
X197560Y119359D01*
X199472Y117447D01*
X294602D01*
X295263Y118109D01*
X295545Y119161D01*
G75*
G02*
X295556Y119199I1309J-352D01*
G01*
G75*
G02*
X299853Y118594I2106J-604D01*
G01*
G75*
G02*
X298266Y116489I-2191J0D01*
G01*
G75*
G02*
X298229Y116478I-389J1298D01*
G01*
X297176Y116196D01*
X296343Y115363D01*
X296566Y115492D01*
G75*
G02*
X296606Y115514I680J-1167D01*
G01*
G75*
G02*
X299254Y112090I1056J-1920D01*
G01*
X306319Y119155D01*
Y143457D01*
X304976Y145783D01*
G75*
G02*
X304540Y147378I2696J1594D01*
G01*
G75*
G02*
X310804I3132J0D01*
G01*
G75*
G02*
X310367Y145783I-3132J0D01*
G01*
X309024Y143457D01*
Y118594D01*
G75*
G02*
X308627Y117637I-1352J0D01*
G01*
X299879Y108889D01*
G75*
G02*
X299637Y108697I-957J956D01*
G01*
X304611D01*
X316319Y120405D01*
Y143457D01*
X314976Y145783D01*
G75*
G02*
X314540Y147378I2696J1594D01*
G01*
G75*
G02*
X320804I3132J0D01*
G01*
G75*
G02*
X320367Y145783I-3132J0D01*
G01*
X319024Y143457D01*
Y119844D01*
G75*
G02*
X318627Y118887I-1352J0D01*
G01*
X306129Y106389D01*
G75*
G02*
X305887Y106197I-957J956D01*
G01*
X312102D01*
X326319Y120415D01*
Y143457D01*
X324976Y145783D01*
G75*
G02*
X324540Y147378I2696J1594D01*
G01*
G75*
G02*
X330804I3132J0D01*
G01*
G75*
G02*
X330367Y145783I-3132J0D01*
G01*
X329024Y143457D01*
Y119854D01*
G75*
G02*
X328627Y118897I-1352J0D01*
G01*
X313619Y103889D01*
G75*
G02*
X313377Y103697I-957J956D01*
G01*
X319611D01*
X336319Y120405D01*
Y143457D01*
X334976Y145783D01*
G75*
G02*
X334540Y147378I2696J1594D01*
G01*
G75*
G02*
X340804I3132J0D01*
G01*
G75*
G02*
X340367Y145783I-3132J0D01*
G01*
X339024Y143457D01*
Y119844D01*
G75*
G02*
X338627Y118887I-1352J0D01*
G01*
X321129Y101389D01*
G75*
G02*
X320887Y101197I-957J956D01*
G01*
X327102D01*
X346319Y120415D01*
Y143457D01*
X344976Y145783D01*
G75*
G02*
X344540Y147378I2696J1594D01*
G01*
G75*
G02*
X350804I3132J0D01*
G01*
G75*
G02*
X350367Y145783I-3132J0D01*
G01*
X349024Y143457D01*
Y119854D01*
G75*
G02*
X348627Y118897I-1352J0D01*
G01*
X328619Y98889D01*
G75*
G02*
X328199Y98604I-957J955D01*
G01*
G75*
G02*
X328663Y98300I-494J-1259D01*
G01*
X335855Y91107D01*
X338482Y90403D01*
G75*
G02*
X338494Y90400I-300J-1187D01*
G01*
G75*
G02*
X340239Y85584I-823J-3022D01*
G01*
X341309Y86655D01*
Y104844D01*
G75*
G02*
X341707Y105802I1352J0D01*
G01*
X349204Y113300D01*
G75*
G02*
X350162Y113697I957J-955D01*
G01*
X376872D01*
X377816Y114242D01*
G75*
G02*
X377856Y114264I680J-1167D01*
G01*
G75*
G02*
X380059Y114211I1056J-1920D01*
G01*
Y132344D01*
G75*
G02*
X380457Y133302I1352J0D01*
G01*
X382559Y135405D01*
Y142805D01*
X382014Y143749D01*
G75*
G02*
X381992Y143788I1167J680D01*
G01*
G75*
G02*
X381721Y144844I1920J1056D01*
G01*
Y144844D01*
G75*
G02*
X386103I2191J0D01*
G01*
Y144844D01*
G75*
G02*
X385831Y143788I-2191J0D01*
G01*
G75*
G02*
X385809Y143749I-1189J640D01*
G01*
X385264Y142805D01*
Y134844D01*
G75*
G02*
X384867Y133887I-1352J0D01*
G01*
X382764Y131784D01*
Y109844D01*
G75*
G02*
X382367Y108887I-1352J0D01*
G01*
X365264Y91784D01*
Y69147D01*
X376530Y57655D01*
G75*
G02*
X377768Y56094I-364J-1561D01*
G01*
Y54397D01*
X379740Y50982D01*
X382592D01*
X384563Y54397D01*
Y55848D01*
G75*
G02*
X385035Y56983I1602J0D01*
G01*
X387559Y59508D01*
Y123034D01*
X385648Y124946D01*
X384595Y125228D01*
G75*
G02*
X384557Y125239I352J1309D01*
G01*
G75*
G02*
X382971Y127344I604J2106D01*
G01*
G75*
G02*
X387268Y127949I2191J0D01*
G01*
G75*
G02*
X387278Y127911I-1298J-389D01*
G01*
X387560Y126859D01*
X389867Y124552D01*
G75*
G02*
X390264Y123594I-955J-957D01*
G01*
Y59454D01*
G75*
G02*
X390045Y57461I-1352J-859D01*
G01*
X387768Y55185D01*
Y54397D01*
X389740Y50982D01*
X392516D01*
Y150589D01*
G75*
G02*
X391734Y150314I-782J975D01*
G01*
X366234D01*
G75*
G02*
X364984Y151564I0J1250D01*
G01*
Y156314D01*
X356234D01*
G75*
G02*
X354984Y157564I0J1250D01*
G01*
Y164064D01*
G75*
G02*
X355161Y164706I1250J0D01*
G01*
X141412D01*
G75*
G03*
X139815Y163109I0J-1596D01*
G01*
X160927Y100191D02*
G75*
G02*
X165719Y91596I-5313J-8595D01*
G01*
G75*
G02*
X145510I-10104J0D01*
G01*
G75*
G02*
X151186Y100678I10104J0D01*
G01*
G75*
G02*
X147321Y108132I5256J7454D01*
G01*
G75*
G02*
X165561I9120J0D01*
G01*
G75*
G02*
X160927Y100191I-9120J0D01*
G01*
X153412Y147344D02*
G75*
G02*
X161912I4250J0D01*
G01*
G75*
G02*
X153412I-4250J0D01*
G01*
X271606Y124264D02*
G75*
G02*
X274853Y122344I1056J-1920D01*
G01*
G75*
G02*
X271606Y120425I-2191J0D01*
G01*
G75*
G02*
X271566Y120447I640J1189D01*
G01*
X270622Y120992D01*
X220162D01*
G75*
G02*
X219204Y121389I0J1352D01*
G01*
X206717Y133877D01*
G75*
G02*
X206319Y134835I955J957D01*
G01*
Y143457D01*
X204976Y145783D01*
G75*
G02*
X204540Y147378I2696J1594D01*
G01*
G75*
G02*
X210804I3132J0D01*
G01*
G75*
G02*
X210367Y145783I-3132J0D01*
G01*
X209024Y143457D01*
Y135395D01*
X220722Y123697D01*
X270622D01*
X271566Y124242D01*
G75*
G02*
X271606Y124264I680J-1167D01*
G01*
X214540Y147378D02*
G75*
G02*
X220804I3132J0D01*
G01*
G75*
G02*
X214540I-3132J0D01*
G01*
X224540D02*
G75*
G02*
X230804I3132J0D01*
G01*
G75*
G02*
X224540I-3132J0D01*
G01*
X234540D02*
G75*
G02*
X240804I3132J0D01*
G01*
G75*
G02*
X234540I-3132J0D01*
G01*
X244540D02*
G75*
G02*
X250804I3132J0D01*
G01*
G75*
G02*
X244540I-3132J0D01*
G01*
X254540D02*
G75*
G02*
X260804I3132J0D01*
G01*
G75*
G02*
X254540I-3132J0D01*
G01*
X264540D02*
G75*
G02*
X270804I3132J0D01*
G01*
G75*
G02*
X264540I-3132J0D01*
G01*
X274540D02*
G75*
G02*
X280804I3132J0D01*
G01*
G75*
G02*
X274540I-3132J0D01*
G01*
X284540D02*
G75*
G02*
X290804I3132J0D01*
G01*
G75*
G02*
X284540I-3132J0D01*
G01*
X294540D02*
G75*
G02*
X300804I3132J0D01*
G01*
G75*
G02*
X294540I-3132J0D01*
G01*
X381752Y81459D02*
G75*
G02*
X386821Y72699I-5035J-8761D01*
G01*
G75*
G02*
X366613I-10104J0D01*
G01*
G75*
G02*
X370793Y80884I10104J0D01*
G01*
G75*
G02*
X366770Y88447I5098J7563D01*
G01*
G75*
G02*
X385010I9120J0D01*
G01*
G75*
G02*
X381752Y81459I-9120J0D01*
G01*
X140065Y80081D02*
G36*
X140065Y80081D02*
Y51232D01*
X152466D01*
X152813Y51835D01*
Y58594D01*
G75*
G02*
X156166Y61947I3352J0D01*
G01*
X162813D01*
Y69844D01*
G75*
G02*
X163798Y72218I3352J0D01*
G01*
X166809Y75229D01*
Y80081D01*
X140065D01*
G37*
X169518Y68456D02*
G36*
X169518Y68456D02*
Y51835D01*
X169866Y51232D01*
X172813D01*
Y60532D01*
Y60559D01*
G75*
G02*
Y60560I4101J0D01*
G01*
G75*
G02*
X173795Y62930I3351J0D01*
G01*
X173828Y62963D01*
G75*
G02*
X179551Y60592I2370J-2371D01*
G01*
G75*
G02*
X179518Y60122I-3353J0D01*
G01*
Y51232D01*
X182813D01*
Y60326D01*
G75*
G02*
X183828Y62728I3355J-1D01*
G01*
G75*
G02*
X189535Y60343I2355J-2385D01*
G01*
G75*
G02*
X189518Y60005I-3450J4D01*
G01*
Y51232D01*
X192736D01*
X194563Y54397D01*
Y56030D01*
X191707Y58887D01*
G75*
G02*
X191309Y59844I953J957D01*
G01*
Y80081D01*
X173514D01*
Y73841D01*
G75*
G02*
X172530Y71467I-3352J0D01*
G01*
X169518Y68456D01*
G37*
X365264Y80081D02*
G36*
X365264Y80081D02*
Y69147D01*
X376530Y57655D01*
G75*
G02*
X377768Y56094I-365J-1561D01*
G01*
Y54397D01*
X379595Y51232D01*
X382736D01*
X384563Y54397D01*
Y55848D01*
Y55849D01*
G75*
G02*
X385035Y56983I1602J0D01*
G01*
X387559Y59508D01*
Y80081D01*
X383617D01*
G75*
G02*
X386821Y72700I-6898J-7381D01*
G01*
G75*
G02*
Y72699I-15038J0D01*
G01*
G75*
G02*
X366613I-10104J0D01*
G01*
G75*
G02*
X369817Y80081I10105J0D01*
G01*
X365264D01*
G37*
X387768Y55185D02*
G36*
X387768Y55185D02*
Y54397D01*
X389595Y51232D01*
X392266D01*
Y80081D01*
X390264D01*
Y59454D01*
G75*
G02*
X390514Y58594I-1352J-859D01*
G01*
G75*
G02*
X390045Y57461I-1602J0D01*
G01*
X387768Y55185D01*
G37*
X140065Y99372D02*
G36*
X140065Y99372D02*
Y80081D01*
X166809D01*
Y99372D01*
X162067D01*
G75*
G02*
X165719Y91597I-6452J-7775D01*
G01*
Y91596D01*
G75*
G02*
X145510I-10104J0D01*
G01*
Y91597D01*
G75*
G02*
X149162Y99372I10104J0D01*
G01*
X140065D01*
G37*
X173514D02*
G36*
X173514Y99372D02*
Y80081D01*
X191309D01*
Y91094D01*
G75*
G02*
Y91095I1253J0D01*
G01*
G75*
G02*
X191707Y92052I1350J0D01*
G01*
X199027Y99372D01*
X173514D01*
G37*
X328619Y98889D02*
G36*
X328619Y98889D02*
G75*
G02*
X328199Y98604I-952J948D01*
G01*
G75*
G02*
X328663Y98300I-496J-1262D01*
G01*
X335855Y91107D01*
X338482Y90403D01*
G75*
G02*
X338494Y90400I-95J-392D01*
G01*
G75*
G02*
X340804Y87378I-823J-3022D01*
G01*
G75*
G02*
X340239Y85584I-3132J0D01*
G01*
X341309Y86655D01*
Y99372D01*
X329102D01*
X328619Y98889D01*
G37*
X365264Y91784D02*
G36*
X365264Y91784D02*
Y80081D01*
X369817D01*
G75*
G02*
X370793Y80884I6900J-7384D01*
G01*
G75*
G02*
X366770Y88447I5098J7563D01*
G01*
G75*
G02*
X385010I9120J0D01*
G01*
Y88446D01*
G75*
G02*
X381752Y81459I-9120J0D01*
G01*
G75*
G02*
X383617Y80081I-5034J-8760D01*
G01*
X387559D01*
Y99372D01*
X372852D01*
X365264Y91784D01*
G37*
X390264Y99372D02*
G36*
X390264Y99372D02*
Y80081D01*
X392266D01*
Y99372D01*
X390264D01*
G37*
X140065Y147344D02*
G36*
X140065Y147344D02*
Y99372D01*
X149162D01*
G75*
G02*
X151186Y100678I6452J-7776D01*
G01*
G75*
G02*
X147321Y108132I5256J7454D01*
G01*
G75*
G02*
X165561I9120J0D01*
G01*
G75*
G02*
X160927Y100191I-9120J0D01*
G01*
G75*
G02*
X162067Y99372I-5313J-8596D01*
G01*
X166809D01*
Y139844D01*
G75*
G02*
X167794Y142218I3352J0D01*
G01*
X172921Y147344D01*
X161912D01*
G75*
G02*
X153412I-4250J0D01*
G01*
X140065D01*
G37*
X173514Y138456D02*
G36*
X173514Y138456D02*
Y99372D01*
X199027D01*
X210454Y110800D01*
G75*
G02*
X211412Y111197I957J-953D01*
G01*
X298361D01*
X299167Y112002D01*
G75*
G02*
X296606Y111675I-1505J1593D01*
G01*
X296566Y111697D01*
X295622Y112242D01*
X206972D01*
X197560Y102830D01*
X197278Y101778D01*
G75*
G02*
X197268Y101740I-753J194D01*
G01*
G75*
G02*
X192971Y102344I-2106J604D01*
G01*
Y102345D01*
G75*
G02*
X194557Y104450I2190J0D01*
G01*
G75*
G02*
X194595Y104461I231J-742D01*
G01*
X195648Y104743D01*
X205454Y114550D01*
G75*
G02*
X205696Y114742I950J-947D01*
G01*
X198912D01*
G75*
G02*
X197954Y115139I-1J1350D01*
G01*
X195648Y117446D01*
X194595Y117728D01*
G75*
G02*
X194557Y117739I194J753D01*
G01*
G75*
G02*
X192971Y119844I604J2106D01*
G01*
Y119844D01*
G75*
G02*
X197268Y120449I2191J0D01*
G01*
G75*
G02*
X197278Y120411I-742J-231D01*
G01*
X197560Y119359D01*
X199472Y117447D01*
X294602D01*
X295263Y118109D01*
X295545Y119161D01*
G75*
G02*
X295556Y119199I753J-194D01*
G01*
G75*
G02*
X299853Y118594I2106J-604D01*
G01*
Y118594D01*
G75*
G02*
X298266Y116489I-2190J0D01*
G01*
G75*
G02*
X298229Y116478I-231J742D01*
G01*
X297176Y116196D01*
X296343Y115363D01*
X296566Y115492D01*
X296606Y115514D01*
G75*
G02*
X299853Y113594I1056J-1920D01*
G01*
G75*
G02*
X299254Y112090I-2191J0D01*
G01*
X306319Y119155D01*
Y143457D01*
X304976Y145783D01*
G75*
G02*
X304540Y147344I2697J1595D01*
G01*
X300804D01*
G75*
G02*
X294540I-3132J33D01*
G01*
X290804D01*
G75*
G02*
X284540I-3132J33D01*
G01*
X280804D01*
G75*
G02*
X274540I-3132J33D01*
G01*
X270804D01*
G75*
G02*
X264540I-3132J33D01*
G01*
X260804D01*
G75*
G02*
X254540I-3132J33D01*
G01*
X250804D01*
G75*
G02*
X244540I-3132J33D01*
G01*
X240804D01*
G75*
G02*
X234540I-3132J33D01*
G01*
X230804D01*
G75*
G02*
X224540I-3132J33D01*
G01*
X220804D01*
G75*
G02*
X214540I-3132J33D01*
G01*
X210804D01*
G75*
G02*
X210367Y145783I-3133J34D01*
G01*
X209024Y143457D01*
Y135395D01*
X220722Y123697D01*
X270622D01*
X271566Y124242D01*
X271606Y124264D01*
G75*
G02*
X274853Y122344I1056J-1920D01*
G01*
G75*
G02*
X271606Y120425I-2191J0D01*
G01*
X271566Y120447D01*
X270622Y120992D01*
X220162D01*
G75*
G02*
X219204Y121389I-1J1350D01*
G01*
X206717Y133877D01*
G75*
G02*
X206319Y134834I953J957D01*
G01*
G75*
G02*
Y134835I1253J0D01*
G01*
Y143457D01*
X204976Y145783D01*
G75*
G02*
X204540Y147344I2697J1595D01*
G01*
X201025D01*
G75*
G02*
X197599Y144026I-3353J33D01*
G01*
X179618D01*
G75*
G02*
X178690Y143632I-1961J3330D01*
G01*
X173514Y138456D01*
G37*
X299879Y108889D02*
G36*
X299879Y108889D02*
G75*
G02*
X299637Y108697I-950J947D01*
G01*
X304611D01*
X316319Y120405D01*
Y143457D01*
X314976Y145783D01*
G75*
G02*
X314540Y147344I2697J1595D01*
G01*
X310804D01*
G75*
G02*
X310367Y145783I-3133J34D01*
G01*
X309024Y143457D01*
Y118594D01*
G75*
G02*
X308627Y117637I-1350J-1D01*
G01*
X299879Y108889D01*
G37*
X306129Y106389D02*
G36*
X306129Y106389D02*
G75*
G02*
X305887Y106197I-950J947D01*
G01*
X312102D01*
X326319Y120415D01*
Y143457D01*
X324976Y145783D01*
G75*
G02*
X324540Y147344I2697J1595D01*
G01*
X320804D01*
G75*
G02*
X320367Y145783I-3133J34D01*
G01*
X319024Y143457D01*
Y119844D01*
G75*
G02*
X318627Y118887I-1350J-1D01*
G01*
X306129Y106389D01*
G37*
X313619Y103889D02*
G36*
X313619Y103889D02*
G75*
G02*
X313377Y103697I-950J947D01*
G01*
X319611D01*
X336319Y120405D01*
Y143457D01*
X334976Y145783D01*
G75*
G02*
X334540Y147344I2697J1595D01*
G01*
X330804D01*
G75*
G02*
X330367Y145783I-3133J34D01*
G01*
X329024Y143457D01*
Y119854D01*
G75*
G02*
X328627Y118897I-1350J-1D01*
G01*
X313619Y103889D01*
G37*
X321129Y101389D02*
G36*
X321129Y101389D02*
G75*
G02*
X320887Y101197I-950J947D01*
G01*
X327102D01*
X346319Y120415D01*
Y143457D01*
X344976Y145783D01*
G75*
G02*
X344540Y147344I2697J1595D01*
G01*
X340804D01*
G75*
G02*
X340367Y145783I-3133J34D01*
G01*
X339024Y143457D01*
Y119844D01*
G75*
G02*
X338627Y118887I-1350J-1D01*
G01*
X321129Y101389D01*
G37*
X329102Y99372D02*
G36*
X329102Y99372D02*
X341309D01*
Y104844D01*
G75*
G02*
Y104845I1253J0D01*
G01*
G75*
G02*
X341707Y105802I1350J0D01*
G01*
X349204Y113300D01*
G75*
G02*
X350162Y113697I957J-953D01*
G01*
X376872D01*
X377816Y114242D01*
X377856Y114264D01*
G75*
G02*
X380059Y114211I1056J-1919D01*
G01*
Y132344D01*
G75*
G02*
Y132345I1253J0D01*
G01*
G75*
G02*
X380457Y133302I1350J0D01*
G01*
X382559Y135405D01*
Y142805D01*
X382014Y143749D01*
X381992Y143788D01*
G75*
G02*
X381721Y144844I1918J1056D01*
G01*
Y144844D01*
Y144844D01*
G75*
G02*
X386103I2191J0D01*
G01*
Y144844D01*
Y144844D01*
G75*
G02*
X385831Y143788I-2189J0D01*
G01*
X385809Y143749D01*
X385264Y142805D01*
Y134844D01*
G75*
G02*
X384867Y133887I-1350J-1D01*
G01*
X382764Y131784D01*
Y109844D01*
G75*
G02*
X382367Y108887I-1350J-1D01*
G01*
X372852Y99372D01*
X387559D01*
Y123034D01*
X385648Y124946D01*
X384595Y125228D01*
G75*
G02*
X384557Y125239I194J753D01*
G01*
G75*
G02*
X382971Y127344I604J2106D01*
G01*
Y127344D01*
G75*
G02*
X387268Y127949I2191J0D01*
G01*
G75*
G02*
X387278Y127911I-742J-231D01*
G01*
X387560Y126859D01*
X389867Y124552D01*
G75*
G02*
X390264Y123595I-953J-957D01*
G01*
G75*
G02*
Y123594I-1253J0D01*
G01*
Y99372D01*
X392266D01*
Y147344D01*
X350804D01*
G75*
G02*
X350367Y145783I-3133J34D01*
G01*
X349024Y143457D01*
Y119854D01*
G75*
G02*
X348627Y118897I-1350J-1D01*
G01*
X329102Y99372D01*
G37*
X140065Y163967D02*
G36*
X140065Y163967D02*
Y147344D01*
X153412D01*
G75*
G02*
X161912I4250J0D01*
G01*
X172921D01*
X173949Y148373D01*
G75*
G02*
X179500Y150730I3713J-1029D01*
G01*
X197599D01*
G75*
G02*
X201025Y147378I73J-3352D01*
G01*
G75*
G02*
Y147344I-3358J-17D01*
G01*
X204540D01*
G75*
G02*
Y147378I3138J17D01*
G01*
G75*
G02*
X210804I3132J0D01*
G01*
G75*
G02*
Y147344I-3138J-17D01*
G01*
X214540D01*
G75*
G02*
Y147378I3133J17D01*
G01*
G75*
G02*
X220804I3132J0D01*
G01*
G75*
G02*
Y147344I-3133J-17D01*
G01*
X224540D01*
G75*
G02*
Y147378I3133J17D01*
G01*
G75*
G02*
X230804I3132J0D01*
G01*
G75*
G02*
Y147344I-3133J-17D01*
G01*
X234540D01*
G75*
G02*
Y147378I3133J17D01*
G01*
G75*
G02*
X240804I3132J0D01*
G01*
G75*
G02*
Y147344I-3133J-17D01*
G01*
X244540D01*
G75*
G02*
Y147378I3133J17D01*
G01*
G75*
G02*
X250804I3132J0D01*
G01*
G75*
G02*
Y147344I-3133J-17D01*
G01*
X254540D01*
G75*
G02*
Y147378I3133J17D01*
G01*
G75*
G02*
X260804I3132J0D01*
G01*
G75*
G02*
Y147344I-3133J-17D01*
G01*
X264540D01*
G75*
G02*
Y147378I3133J17D01*
G01*
G75*
G02*
X270804I3132J0D01*
G01*
G75*
G02*
Y147344I-3133J-17D01*
G01*
X274540D01*
G75*
G02*
Y147378I3133J17D01*
G01*
G75*
G02*
X280804I3132J0D01*
G01*
G75*
G02*
Y147344I-3133J-17D01*
G01*
X284540D01*
G75*
G02*
Y147378I3133J17D01*
G01*
G75*
G02*
X290804I3132J0D01*
G01*
G75*
G02*
Y147344I-3133J-17D01*
G01*
X294540D01*
G75*
G02*
Y147378I3133J17D01*
G01*
G75*
G02*
X300804I3132J0D01*
G01*
G75*
G02*
Y147344I-3133J-17D01*
G01*
X304540D01*
G75*
G02*
Y147378I3138J17D01*
G01*
G75*
G02*
X310804I3132J0D01*
G01*
G75*
G02*
Y147344I-3138J-17D01*
G01*
X314540D01*
G75*
G02*
Y147378I3138J17D01*
G01*
G75*
G02*
X320804I3132J0D01*
G01*
G75*
G02*
Y147344I-3138J-17D01*
G01*
X324540D01*
G75*
G02*
Y147378I3138J17D01*
G01*
G75*
G02*
X330804I3132J0D01*
G01*
G75*
G02*
Y147344I-3138J-17D01*
G01*
X334540D01*
G75*
G02*
Y147378I3138J17D01*
G01*
G75*
G02*
X340804I3132J0D01*
G01*
G75*
G02*
Y147344I-3138J-17D01*
G01*
X344540D01*
G75*
G02*
Y147378I3138J17D01*
G01*
G75*
G02*
X350804I3132J0D01*
G01*
G75*
G02*
Y147344I-3138J-17D01*
G01*
X392266D01*
Y150433D01*
G75*
G02*
X391734Y150314I-532J1132D01*
G01*
X366234D01*
G75*
G02*
X364984Y151564I0J1250D01*
G01*
Y156314D01*
X356234D01*
G75*
G02*
X354984Y157564I0J1250D01*
G01*
Y164064D01*
G75*
G02*
Y164065I1230J1D01*
G01*
G75*
G02*
X355047Y164456I1246J0D01*
G01*
X140554D01*
G75*
G03*
X140065Y163967I858J-1347D01*
G01*
G37*
X142627Y9707D02*
X389487D01*
G75*
G03*
X394985Y15204I0J5497D01*
G01*
Y163602D01*
G75*
G03*
X391412Y167174I-3573J0D01*
G01*
X141412D01*
G75*
G03*
X137347Y163109I0J-4065D01*
G01*
Y14987D01*
G75*
G03*
X142627Y9707I5280J0D01*
G01*
X204014Y89284D02*
Y60634D01*
X204559Y59690D01*
G75*
G02*
X204581Y59651I-1167J-680D01*
G01*
G75*
G02*
X204813Y59008I-1920J-1056D01*
G01*
Y78348D01*
G75*
G02*
X205211Y79306I1352J0D01*
G01*
X210059Y84155D01*
Y84779D01*
G75*
G02*
X204142Y87378I-2388J2599D01*
G01*
G75*
G02*
X210059Y89977I3530J0D01*
G01*
Y93594D01*
G75*
G02*
X210457Y94552I1352J0D01*
G01*
X221704Y105800D01*
G75*
G02*
X221946Y105992I957J-956D01*
G01*
X220722D01*
X204014Y89284D01*
G36*
X204014Y89284D02*
Y60634D01*
X204559Y59690D01*
G75*
G02*
X204581Y59651I-1167J-680D01*
G01*
G75*
G02*
X204813Y59008I-1920J-1056D01*
G01*
Y78348D01*
G75*
G02*
X205211Y79306I1352J0D01*
G01*
X210059Y84155D01*
Y84779D01*
G75*
G02*
X204142Y87378I-2388J2599D01*
G01*
G75*
G02*
X210059Y89977I3530J0D01*
G01*
Y93594D01*
G75*
G02*
X210457Y94552I1352J0D01*
G01*
X221704Y105800D01*
G75*
G02*
X221946Y105992I957J-956D01*
G01*
X220722D01*
X204014Y89284D01*
G37*
X235264Y85375D02*
Y71810D01*
G75*
G02*
X235457Y72052I1148J-715D01*
G01*
X245454Y82050D01*
G75*
G02*
X246412Y82447I957J-955D01*
G01*
X250852D01*
X253952Y85547D01*
X254634Y88142D01*
G75*
G02*
X260804Y87378I3037J-764D01*
G01*
G75*
G02*
X258477Y84351I-3132J0D01*
G01*
X255869Y83639D01*
X252369Y80139D01*
G75*
G02*
X252127Y79947I-957J956D01*
G01*
X258352D01*
X263952Y85547D01*
X264634Y88142D01*
G75*
G02*
X270804Y87378I3037J-764D01*
G01*
G75*
G02*
X268477Y84351I-3132J0D01*
G01*
X265869Y83639D01*
X259869Y77639D01*
G75*
G02*
X259627Y77447I-957J956D01*
G01*
X265828D01*
X273943Y85561D01*
X274646Y88189D01*
G75*
G02*
X274650Y88201I1187J-300D01*
G01*
G75*
G02*
X280804Y87378I3022J-823D01*
G01*
G75*
G02*
X278494Y84356I-3132J0D01*
G01*
G75*
G02*
X278482Y84353I-406J1549D01*
G01*
X275855Y83649D01*
X267346Y75139D01*
G75*
G02*
X267104Y74947I-957J956D01*
G01*
X273328D01*
X283943Y85561D01*
X284646Y88189D01*
G75*
G02*
X284650Y88201I1187J-300D01*
G01*
G75*
G02*
X290804Y87378I3022J-823D01*
G01*
G75*
G02*
X288494Y84356I-3132J0D01*
G01*
G75*
G02*
X288482Y84353I-406J1549D01*
G01*
X285855Y83649D01*
X274846Y72639D01*
G75*
G02*
X274604Y72447I-957J956D01*
G01*
X280852D01*
X293952Y85547D01*
X294634Y88142D01*
G75*
G02*
X300804Y87378I3037J-764D01*
G01*
G75*
G02*
X300509Y86052I-3132J0D01*
G01*
X302790Y88333D01*
G75*
G02*
X303748Y88730I957J-955D01*
G01*
X303750D01*
X306077Y90074D01*
G75*
G02*
X310804Y87378I1594J-2696D01*
G01*
G75*
G02*
X306077Y84682I-3132J0D01*
G01*
X304104Y85822D01*
X285922Y67639D01*
G75*
G02*
X284964Y67242I-957J955D01*
G01*
X265722D01*
X260264Y61784D01*
Y60634D01*
X260809Y59690D01*
G75*
G02*
X260831Y59651I-1167J-680D01*
G01*
G75*
G02*
X261103Y58595I-1920J-1056D01*
G01*
Y58594D01*
G75*
G02*
X257768Y56726I-2191J0D01*
G01*
Y54397D01*
X259740Y50982D01*
X262592D01*
X264563Y54397D01*
Y54534D01*
X261707Y57391D01*
G75*
G02*
X261309Y58348I955J957D01*
G01*
Y61094D01*
G75*
G02*
X261707Y62052I1352J0D01*
G01*
X265454Y65800D01*
G75*
G02*
X266412Y66197I957J-955D01*
G01*
X287102D01*
X301513Y80609D01*
X301795Y81661D01*
G75*
G02*
X301806Y81699I1309J-352D01*
G01*
G75*
G02*
X306103Y81094I2106J-604D01*
G01*
G75*
G02*
X304516Y78989I-2191J0D01*
G01*
G75*
G02*
X304479Y78978I-389J1298D01*
G01*
X303426Y78696D01*
X288619Y63889D01*
G75*
G02*
X287662Y63492I-957J955D01*
G01*
X266972D01*
X264014Y60534D01*
Y58909D01*
X264223Y58699D01*
G75*
G02*
X265807Y60700I2189J-105D01*
G01*
G75*
G02*
X265845Y60711I389J-1298D01*
G01*
X266898Y60993D01*
X267954Y62050D01*
G75*
G02*
X268912Y62447I957J-955D01*
G01*
X288122D01*
X289066Y62992D01*
G75*
G02*
X289106Y63014I680J-1167D01*
G01*
G75*
G02*
X292353Y61094I1056J-1920D01*
G01*
G75*
G02*
X289106Y59175I-2191J0D01*
G01*
G75*
G02*
X289066Y59197I640J1189D01*
G01*
X288122Y59742D01*
X283534D01*
G75*
G02*
X283549Y59728I-1117J-1163D01*
G01*
X287299Y55978D01*
G75*
G02*
X287768Y54844I-1133J-1133D01*
G01*
G75*
G02*
Y54841I-621J-2D01*
G01*
Y54397D01*
X289740Y50982D01*
X292592D01*
X294563Y54397D01*
Y66168D01*
G75*
G02*
X294221Y67344I1849J1176D01*
G01*
G75*
G02*
X298603I2191J0D01*
G01*
G75*
G02*
X297768Y65624I-2191J0D01*
G01*
Y54397D01*
X299740Y50982D01*
X302592D01*
X304563Y54397D01*
Y58177D01*
X301335Y61405D01*
G75*
G02*
X299221Y63594I76J2190D01*
G01*
G75*
G02*
X303602Y63671I2191J0D01*
G01*
X307297Y59976D01*
G75*
G02*
X307768Y58841I-1131J-1135D01*
G01*
Y54397D01*
X309740Y50982D01*
X322592D01*
X324563Y54397D01*
Y55784D01*
X310606Y69742D01*
X302202D01*
X301257Y69197D01*
G75*
G02*
X301218Y69175I-680J1167D01*
G01*
G75*
G02*
X297971Y71094I-1056J1920D01*
G01*
G75*
G02*
X301218Y73014I2191J0D01*
G01*
G75*
G02*
X301257Y72992I-640J-1189D01*
G01*
X302202Y72447D01*
X311166D01*
G75*
G02*
X312123Y72050I0J-1352D01*
G01*
X326514Y57659D01*
G75*
G02*
X327768Y56094I-348J-1564D01*
G01*
Y54397D01*
X329740Y50982D01*
X372592D01*
X374563Y54397D01*
Y55797D01*
X362947Y67646D01*
G75*
G02*
X362559Y68594I965J948D01*
G01*
Y92344D01*
G75*
G02*
X362957Y93302I1352J0D01*
G01*
X380059Y110405D01*
Y110478D01*
G75*
G02*
X377856Y110425I-1148J1867D01*
G01*
G75*
G02*
X377816Y110447I640J1189D01*
G01*
X376872Y110992D01*
X350722D01*
X344014Y104284D01*
Y86094D01*
G75*
G02*
X343617Y85137I-1352J0D01*
G01*
X339869Y81389D01*
G75*
G02*
X338912Y80992I-957J955D01*
G01*
X331972D01*
X327518Y76538D01*
Y65634D01*
X328063Y64690D01*
G75*
G02*
X328085Y64651I-1167J-680D01*
G01*
G75*
G02*
X328357Y63595I-1920J-1056D01*
G01*
Y63594D01*
G75*
G02*
X323975I-2191J0D01*
G01*
Y63595D01*
G75*
G02*
X324246Y64651I2191J0D01*
G01*
G75*
G02*
X324268Y64690I1189J-640D01*
G01*
X324813Y65634D01*
Y77098D01*
G75*
G02*
X325211Y78056I1352J0D01*
G01*
X330454Y83300D01*
G75*
G02*
X331412Y83697I957J-955D01*
G01*
X338352D01*
X339465Y84810D01*
G75*
G02*
X334650Y86555I-1794J2568D01*
G01*
G75*
G02*
X334646Y86567I1549J406D01*
G01*
X333943Y89194D01*
X327145Y95992D01*
X320920D01*
G75*
G02*
X321163Y95800I-715J-1148D01*
G01*
X325855Y91107D01*
X328482Y90403D01*
G75*
G02*
X328494Y90400I-300J-1187D01*
G01*
G75*
G02*
X330804Y87378I-823J-3022D01*
G01*
G75*
G02*
X324650Y86555I-3132J0D01*
G01*
G75*
G02*
X324646Y86567I1549J406D01*
G01*
X323943Y89194D01*
X319645Y93492D01*
X314627D01*
G75*
G02*
X314869Y93300I-715J-1148D01*
G01*
X316652Y91517D01*
X319163Y90131D01*
G75*
G02*
X320804Y87378I-1492J-2754D01*
G01*
G75*
G02*
X314540Y87350I-3132J0D01*
G01*
X314491Y89853D01*
X313352Y90992D01*
X236972D01*
X236017Y90037D01*
G75*
G02*
X240804Y87378I1655J-2659D01*
G01*
G75*
G02*
X235264Y85375I-3132J0D01*
G01*
X344142Y87378D02*
G75*
G02*
X351201I3530J0D01*
G01*
G75*
G02*
X344142I-3530J0D01*
G01*
X244540D02*
G75*
G02*
X250804I3132J0D01*
G01*
G75*
G02*
X244540I-3132J0D01*
G01*
X235514Y85108D02*
G36*
X235514Y85108D02*
Y72109D01*
X245454Y82050D01*
G75*
G02*
X246412Y82447I957J-953D01*
G01*
X250852D01*
X253952Y85547D01*
X254433Y87378D01*
X250804D01*
G75*
G02*
X244540I-3132J0D01*
G01*
X240804D01*
G75*
G02*
X235514Y85108I-3132J0D01*
G01*
G37*
X252369Y80139D02*
G36*
X252369Y80139D02*
G75*
G02*
X252127Y79947I-950J947D01*
G01*
X258352D01*
X263952Y85547D01*
X264433Y87378D01*
X260804D01*
Y87378D01*
G75*
G02*
X258477Y84351I-3131J0D01*
G01*
X255869Y83639D01*
X252369Y80139D01*
G37*
X257768Y56726D02*
G36*
X257768Y56726D02*
Y54397D01*
X259595Y51232D01*
X262736D01*
X264563Y54397D01*
Y54534D01*
X261707Y57391D01*
G75*
G02*
X261309Y58348I953J957D01*
G01*
Y61094D01*
G75*
G02*
Y61095I1253J0D01*
G01*
G75*
G02*
X261707Y62052I1350J0D01*
G01*
X265454Y65800D01*
G75*
G02*
X266412Y66197I957J-953D01*
G01*
X287102D01*
X301513Y80609D01*
X301795Y81661D01*
G75*
G02*
X301806Y81699I753J-194D01*
G01*
G75*
G02*
X306103Y81094I2106J-604D01*
G01*
Y81094D01*
G75*
G02*
X304516Y78989I-2190J0D01*
G01*
G75*
G02*
X304479Y78978I-231J742D01*
G01*
X303426Y78696D01*
X288619Y63889D01*
G75*
G02*
X287662Y63492I-957J953D01*
G01*
X266972D01*
X264014Y60534D01*
Y58909D01*
X264223Y58699D01*
G75*
G02*
X265807Y60700I2188J-104D01*
G01*
G75*
G02*
X265845Y60711I231J-742D01*
G01*
X266898Y60993D01*
X267954Y62050D01*
G75*
G02*
X268912Y62447I957J-953D01*
G01*
X288122D01*
X289066Y62992D01*
X289106Y63014D01*
G75*
G02*
X292353Y61094I1056J-1920D01*
G01*
G75*
G02*
X289106Y59175I-2191J0D01*
G01*
X289066Y59197D01*
X288122Y59742D01*
X283534D01*
G75*
G02*
X283549Y59728I-262J-284D01*
G01*
X287299Y55978D01*
G75*
G02*
X287768Y54844I-1133J-1133D01*
G01*
Y54844D01*
Y54841D01*
Y54397D01*
X289595Y51232D01*
X292736D01*
X294563Y54397D01*
Y66168D01*
G75*
G02*
X294221Y67344I1850J1177D01*
G01*
G75*
G02*
X298603I2191J0D01*
G01*
G75*
G02*
X297768Y65624I-2191J0D01*
G01*
Y54397D01*
X299595Y51232D01*
X302736D01*
X304563Y54397D01*
Y58177D01*
X301335Y61405D01*
G75*
G02*
X299221Y63594I77J2190D01*
G01*
G75*
G02*
X303602Y63671I2191J0D01*
G01*
X307297Y59976D01*
G75*
G02*
X307768Y58841I-1130J-1135D01*
G01*
Y58841D01*
Y54397D01*
X309595Y51232D01*
X322736D01*
X324563Y54397D01*
Y55784D01*
X310606Y69742D01*
X302202D01*
X301257Y69197D01*
X301218Y69175D01*
G75*
G02*
X297971Y71094I-1056J1920D01*
G01*
G75*
G02*
X301218Y73014I2191J0D01*
G01*
X301257Y72992D01*
X302202Y72447D01*
X311166D01*
G75*
G02*
X312123Y72050I1J-1350D01*
G01*
X326514Y57659D01*
G75*
G02*
X327768Y56094I-349J-1565D01*
G01*
Y54397D01*
X329595Y51232D01*
X372736D01*
X374563Y54397D01*
Y55797D01*
X362947Y67646D01*
G75*
G02*
X362559Y68594I966J948D01*
G01*
Y87378D01*
X351201D01*
G75*
G02*
X344142I-3530J0D01*
G01*
X344014D01*
Y86094D01*
G75*
G02*
X343617Y85137I-1350J-1D01*
G01*
X339869Y81389D01*
G75*
G02*
X338912Y80992I-957J953D01*
G01*
X331972D01*
X327518Y76538D01*
Y65634D01*
X328063Y64690D01*
X328085Y64651D01*
G75*
G02*
X328357Y63595I-1918J-1056D01*
G01*
Y63595D01*
Y63594D01*
G75*
G02*
X323975I-2191J0D01*
G01*
Y63595D01*
Y63595D01*
G75*
G02*
X324246Y64651I2189J0D01*
G01*
X324268Y64690D01*
X324813Y65634D01*
Y77098D01*
G75*
G02*
Y77099I1253J0D01*
G01*
G75*
G02*
X325211Y78056I1350J0D01*
G01*
X330454Y83300D01*
G75*
G02*
X331412Y83697I957J-953D01*
G01*
X338352D01*
X339465Y84810D01*
G75*
G02*
X334650Y86555I-1794J2568D01*
G01*
G75*
G02*
X334646Y86567I389J107D01*
G01*
X334429Y87378D01*
X330804D01*
G75*
G02*
X324650Y86555I-3132J0D01*
G01*
G75*
G02*
X324646Y86567I389J107D01*
G01*
X324429Y87378D01*
X320804D01*
G75*
G02*
X314540Y87350I-3132J0D01*
G01*
X314539Y87378D01*
X310804D01*
G75*
G02*
X306077Y84682I-3132J0D01*
G01*
X304104Y85822D01*
X285922Y67639D01*
G75*
G02*
X284964Y67242I-957J953D01*
G01*
X265722D01*
X260264Y61784D01*
Y60634D01*
X260809Y59690D01*
X260831Y59651D01*
G75*
G02*
X261103Y58595I-1918J-1056D01*
G01*
Y58595D01*
Y58594D01*
Y58594D01*
G75*
G02*
X257768Y56726I-2191J0D01*
G01*
G37*
X259869Y77639D02*
G36*
X259869Y77639D02*
G75*
G02*
X259627Y77447I-950J947D01*
G01*
X265828D01*
X273943Y85561D01*
X274429Y87378D01*
X270804D01*
Y87378D01*
G75*
G02*
X268477Y84351I-3131J0D01*
G01*
X265869Y83639D01*
X259869Y77639D01*
G37*
X267346Y75139D02*
G36*
X267346Y75139D02*
G75*
G02*
X267104Y74947I-950J947D01*
G01*
X273328D01*
X283943Y85561D01*
X284429Y87378D01*
X280804D01*
G75*
G02*
X278494Y84356I-3132J0D01*
G01*
G75*
G02*
X278482Y84353I-107J389D01*
G01*
X275855Y83649D01*
X267346Y75139D01*
G37*
X274846Y72639D02*
G36*
X274846Y72639D02*
G75*
G02*
X274604Y72447I-950J947D01*
G01*
X280852D01*
X293952Y85547D01*
X294433Y87378D01*
X290804D01*
G75*
G02*
X288494Y84356I-3132J0D01*
G01*
G75*
G02*
X288482Y84353I-107J389D01*
G01*
X285855Y83649D01*
X274846Y72639D01*
G37*
X300804Y87377D02*
G36*
X300804Y87377D02*
G75*
G02*
X300509Y86052I-3129J0D01*
G01*
X301835Y87378D01*
X300804D01*
G75*
G02*
Y87377I-3007J0D01*
G01*
G37*
X236972Y90992D02*
G36*
X236972Y90992D02*
X236017Y90037D01*
G75*
G02*
X240804Y87378I1655J-2659D01*
G01*
X244540D01*
G75*
G02*
X250804I3132J0D01*
G01*
X254433D01*
X254634Y88142D01*
G75*
G02*
X260804Y87378I3037J-764D01*
G01*
X264433D01*
X264634Y88142D01*
G75*
G02*
X270804Y87378I3037J-764D01*
G01*
X274429D01*
X274646Y88189D01*
G75*
G02*
X274650Y88201I392J-95D01*
G01*
G75*
G02*
X280804Y87378I3022J-823D01*
G01*
X284429D01*
X284646Y88189D01*
G75*
G02*
X284650Y88201I392J-95D01*
G01*
G75*
G02*
X290804Y87378I3022J-823D01*
G01*
X294433D01*
X294634Y88142D01*
G75*
G02*
X300804Y87378I3037J-764D01*
G01*
X301835D01*
X302790Y88333D01*
G75*
G02*
X303748Y88730I957J-953D01*
G01*
X303750D01*
X306077Y90074D01*
G75*
G02*
X310804Y87378I1594J-2696D01*
G01*
X314539D01*
X314491Y89853D01*
X313352Y90992D01*
X236972D01*
G37*
X314627Y93492D02*
G36*
X314627Y93492D02*
G75*
G02*
X314869Y93300I-708J-1139D01*
G01*
X316652Y91517D01*
X319163Y90131D01*
G75*
G02*
X320804Y87378I-1493J-2755D01*
G01*
X324429D01*
X323943Y89194D01*
X319645Y93492D01*
X314627D01*
G37*
X320920Y95992D02*
G36*
X320920Y95992D02*
G75*
G02*
X321163Y95800I-708J-1139D01*
G01*
X325855Y91107D01*
X328482Y90403D01*
G75*
G02*
X328494Y90400I-95J-392D01*
G01*
G75*
G02*
X330804Y87378I-823J-3022D01*
G01*
X334429D01*
X333943Y89194D01*
X327145Y95992D01*
X320920D01*
G37*
X344014Y104284D02*
G36*
X344014Y104284D02*
Y87378D01*
X344142D01*
G75*
G02*
X351201I3530J0D01*
G01*
X362559D01*
Y92344D01*
G75*
G02*
Y92345I1253J0D01*
G01*
G75*
G02*
X362957Y93302I1350J0D01*
G01*
X379809Y110155D01*
Y110346D01*
G75*
G02*
X377856Y110425I-898J1998D01*
G01*
X377816Y110447D01*
X377305Y110742D01*
X350472D01*
X344014Y104284D01*
G37*
X388984Y158752D02*
X391484D01*
X389297Y160939D01*
X388984Y161564D01*
X389297Y162189D01*
X389922Y162502D01*
X390859D01*
X391484Y162189D01*
X386172Y159064D02*
X385547Y158752D01*
X384922D01*
X384297Y159064D01*
X383984Y159689D01*
Y161564D01*
X384297Y162189D01*
X384922Y162502D01*
X385547D01*
X386172Y162189D01*
X386484Y161564D01*
Y159689D01*
X386172Y159064D01*
X384297Y162189D01*
X378984Y158752D02*
X381484D01*
X379297Y160939D01*
X378984Y161564D01*
X379297Y162189D01*
X379922Y162502D01*
X380859D01*
X381484Y162189D01*
X375859Y158752D02*
X374609D01*
X375234D02*
Y162502D01*
X375859Y161877D01*
X371484Y158752D02*
X368359Y162502D01*
X366172Y159064D02*
X365547Y158752D01*
X364922D01*
X364297Y159064D01*
X363984Y159689D01*
Y161564D01*
X364297Y162189D01*
X364922Y162502D01*
X365547D01*
X366172Y162189D01*
X366484Y161564D01*
Y159689D01*
X366172Y159064D01*
X364297Y162189D01*
X360547Y160627D02*
X359922D01*
X359297Y160939D01*
X358984Y161564D01*
X359297Y162189D01*
X359922Y162502D01*
X360547D01*
X361172Y162189D01*
X361484Y161564D01*
X361172Y160939D01*
X360547Y160627D01*
X361172Y160314D01*
X361484Y159689D01*
X361172Y159064D01*
X360547Y158752D01*
X359922D01*
X359297Y159064D01*
X358984Y159689D01*
X359297Y160314D01*
X359922Y160627D01*
X391484Y152752D02*
Y156502D01*
X389297D01*
X388672Y156189D01*
X388359Y155564D01*
X388672Y154939D01*
X389297Y154627D01*
X391484D01*
X389297D02*
X388359Y152752D01*
X383984Y153064D02*
X384297Y152752D01*
X384922D01*
X385547D01*
X386172Y153064D01*
X386484Y153689D01*
Y154627D01*
X386172Y154939D01*
X385547Y155252D01*
X384922D01*
X384297Y154939D01*
X383984Y154627D01*
Y154314D01*
X384297Y154002D01*
X384922Y153689D01*
X385547D01*
X386172Y154002D01*
X386484Y154314D01*
X381484Y155252D02*
X380234Y152752D01*
X378984Y155252D01*
X374922Y152752D02*
X374609Y153064D01*
X374922Y153377D01*
X375234Y153064D01*
X374922Y152752D01*
Y154314D02*
X374609Y154627D01*
X374922Y154939D01*
X375234Y154627D01*
X374922Y154314D01*
X368359Y153377D02*
X368672Y153064D01*
X369297Y152752D01*
X370234D01*
X370859Y153064D01*
X371172Y153377D01*
X371484Y154002D01*
Y155252D01*
X371172Y155877D01*
X370859Y156189D01*
X370234Y156502D01*
X369297D01*
X368672Y156189D01*
X368359Y155877D01*
D02*
D22*
X156166Y31754D02*
Y58594D01*
X166166D01*
X156166Y50937D02*
X155319Y49470D01*
X157012D01*
X156166Y50937D01*
G36*
X156166Y50937D02*
X155319Y49470D01*
X157012D01*
X156166Y50937D01*
G37*
X166166Y31754D02*
Y58594D01*
Y50937D02*
X165319Y49470D01*
X167012D01*
X166166Y50937D01*
G36*
X166166Y50937D02*
X165319Y49470D01*
X167012D01*
X166166Y50937D01*
G37*
X170162Y77344D02*
Y134844D01*
Y77344D02*
Y73841D01*
X166166Y69844D01*
Y58594D01*
X176166Y31754D02*
Y60559D01*
X176199Y60593D01*
X176166Y50937D02*
X175319Y49470D01*
X177012D01*
X176166Y50937D01*
G36*
X176166Y50937D02*
X175319Y49470D01*
X177012D01*
X176166Y50937D01*
G37*
X177662Y147344D02*
X170162Y139844D01*
Y134844D01*
X186166Y31754D02*
Y60326D01*
X186183Y60343D01*
X186166Y50937D02*
X185319Y49470D01*
X187012D01*
X186166Y50937D01*
G36*
X186166Y50937D02*
X185319Y49470D01*
X187012D01*
X186166Y50937D01*
G37*
X197672Y147378D02*
X177695D01*
X177662Y147344D01*
D02*
D23*
X155162D02*
X153162D01*
X157662Y144844D02*
Y142844D01*
Y149844D02*
Y151844D01*
X160162Y147344D02*
X162162D01*
X196348Y103530D02*
X195972Y102127D01*
G75*
G03*
X194944Y103155I-810J217D01*
G01*
X196348Y103530D01*
G36*
X196348Y103530D02*
X195972Y102127D01*
G75*
G03*
X194944Y103155I-810J217D01*
G01*
X196348Y103530D01*
G37*
Y118659D02*
X194944Y119034D01*
G75*
G03*
X195972Y120062I217J810D01*
G01*
X196348Y118659D01*
G36*
X196348Y118659D02*
X194944Y119034D01*
G75*
G03*
X195972Y120062I217J810D01*
G01*
X196348Y118659D01*
G37*
X202662Y58594D02*
Y89844D01*
X220162Y107344D01*
X305172D01*
X317672Y119844D01*
Y147378D01*
X202662Y60272D02*
X203388Y59014D01*
G75*
G03*
X201935I-726J-419D01*
G01*
X202662Y60272D01*
G36*
X202662Y60272D02*
X203388Y59014D01*
G75*
G03*
X201935I-726J-419D01*
G01*
X202662Y60272D01*
G37*
X206166Y31754D02*
Y78348D01*
X211412Y83594D01*
Y93594D01*
X222662Y104844D01*
X312662D01*
X327672Y119854D01*
Y147378D01*
X206166Y54401D02*
X203319Y49470D01*
X209012D01*
X206166Y54401D01*
G36*
X206166Y54401D02*
X203319Y49470D01*
X209012D01*
X206166Y54401D01*
G37*
X207672Y85598D02*
Y83598D01*
Y89157D02*
Y91157D01*
Y143819D02*
X206131Y146488D01*
G75*
G03*
X209213I1541J890D01*
G01*
X207672Y143819D01*
G36*
X207672Y143819D02*
X206131Y146488D01*
G75*
G03*
X209213I1541J890D01*
G01*
X207672Y143819D01*
G37*
Y147378D02*
Y134835D01*
X220162Y122344D01*
X272662D01*
X213912Y58594D02*
Y91094D01*
X225162Y102344D01*
X320172D01*
X337672Y119844D01*
Y147378D01*
X213912Y60272D02*
X214638Y59014D01*
G75*
G03*
X213185I-726J-419D01*
G01*
X213912Y60272D01*
G36*
X213912Y60272D02*
X214638Y59014D01*
G75*
G03*
X213185I-726J-419D01*
G01*
X213912Y60272D01*
G37*
X218912Y58594D02*
Y78594D01*
X221658Y81341D01*
Y93594D01*
X227908Y99844D01*
X327662D01*
X347672Y119854D01*
Y147378D01*
X223912Y58594D02*
Y91094D01*
X230162Y97344D01*
X327705D01*
X337672Y87378D01*
X223912Y60272D02*
X224638Y59014D01*
G75*
G03*
X223185I-726J-419D01*
G01*
X223912Y60272D01*
G36*
X223912Y60272D02*
X224638Y59014D01*
G75*
G03*
X223185I-726J-419D01*
G01*
X223912Y60272D01*
G37*
X231412Y61341D02*
Y91094D01*
X235162Y94844D01*
X320205D01*
X327672Y87378D01*
X233912Y58594D02*
Y89844D01*
X236412Y92344D01*
X313912D01*
X317672Y88585D01*
Y87378D01*
X233912Y60272D02*
X234638Y59014D01*
G75*
G03*
X233185I-726J-419D01*
G01*
X233912Y60272D01*
G36*
X233912Y60272D02*
X234638Y59014D01*
G75*
G03*
X233185I-726J-419D01*
G01*
X233912Y60272D01*
G37*
X241412Y58594D02*
Y69844D01*
X250162Y78594D01*
X258912D01*
X267672Y87354D01*
Y87378D01*
X241412Y60272D02*
X242138Y59014D01*
G75*
G03*
X240685I-726J-419D01*
G01*
X241412Y60272D01*
G36*
X241412Y60272D02*
X242138Y59014D01*
G75*
G03*
X240685I-726J-419D01*
G01*
X241412Y60272D01*
G37*
X246166Y54844D02*
Y68348D01*
X253912Y76094D01*
X266388D01*
X277672Y87378D01*
X251412Y58594D02*
Y67344D01*
X257662Y73594D01*
X273888D01*
X287672Y87378D01*
X251412Y60272D02*
X252138Y59014D01*
G75*
G03*
X250685I-726J-419D01*
G01*
X251412Y60272D01*
G36*
X251412Y60272D02*
X252138Y59014D01*
G75*
G03*
X250685I-726J-419D01*
G01*
X251412Y60272D01*
G37*
X255167Y84850D02*
X255951Y87830D01*
G75*
G03*
X258140Y85661I1721J-452D01*
G01*
X255167Y84850D01*
G36*
X255167Y84850D02*
X255951Y87830D01*
G75*
G03*
X258140Y85661I1721J-452D01*
G01*
X255167Y84850D01*
G37*
X256166Y57344D02*
Y66094D01*
X261166Y71094D01*
X281412D01*
X297672Y87354D01*
Y87378D01*
X257672D02*
Y87354D01*
X251412Y81094D01*
X246412D01*
X236412Y71094D01*
Y58594D01*
X236422Y58585D01*
Y57344D01*
X236166Y57089D01*
Y56094D01*
X258912Y58594D02*
Y62344D01*
X265162Y68594D01*
X284964D01*
X303748Y87378D01*
X307672D01*
X258912Y60272D02*
X259638Y59014D01*
G75*
G03*
X258185I-726J-419D01*
G01*
X258912Y60272D01*
G36*
X258912Y60272D02*
X259638Y59014D01*
G75*
G03*
X258185I-726J-419D01*
G01*
X258912Y60272D01*
G37*
X265167Y84850D02*
X265951Y87830D01*
G75*
G03*
X268140Y85661I1721J-452D01*
G01*
X265167Y84850D01*
G36*
X265167Y84850D02*
X265951Y87830D01*
G75*
G03*
X268140Y85661I1721J-452D01*
G01*
X265167Y84850D01*
G37*
X266166Y54844D02*
X262662Y58348D01*
Y61094D01*
X266412Y64844D01*
X287662D01*
X303912Y81094D01*
X266412Y58594D02*
X268912Y61094D01*
X290162D01*
X267598Y59780D02*
X267222Y58377D01*
G75*
G03*
X266194Y59405I-810J217D01*
G01*
X267598Y59780D01*
G36*
X267598Y59780D02*
X267222Y58377D01*
G75*
G03*
X266194Y59405I-810J217D01*
G01*
X267598Y59780D01*
G37*
X270985Y122344D02*
X272243Y123071D01*
G75*
G03*
Y121618I419J-726D01*
G01*
X270985Y122344D01*
G36*
X270985Y122344D02*
X272243Y123071D01*
G75*
G03*
Y121618I419J-726D01*
G01*
X270985Y122344D01*
G37*
X275155Y84861D02*
X275953Y87839D01*
G75*
G03*
X278132Y85659I1719J-461D01*
G01*
X275155Y84861D01*
G36*
X275155Y84861D02*
X275953Y87839D01*
G75*
G03*
X278132Y85659I1719J-461D01*
G01*
X275155Y84861D01*
G37*
X285155D02*
X285953Y87839D01*
G75*
G03*
X288132Y85659I1719J-461D01*
G01*
X285155Y84861D01*
G36*
X285155Y84861D02*
X285953Y87839D01*
G75*
G03*
X288132Y85659I1719J-461D01*
G01*
X285155Y84861D01*
G37*
X288485Y61094D02*
X289743Y61821D01*
G75*
G03*
Y60368I419J-726D01*
G01*
X288485Y61094D01*
G36*
X288485Y61094D02*
X289743Y61821D01*
G75*
G03*
Y60368I419J-726D01*
G01*
X288485Y61094D01*
G37*
X295167Y84850D02*
X295951Y87830D01*
G75*
G03*
X298140Y85661I1721J-452D01*
G01*
X295167Y84850D01*
G36*
X295167Y84850D02*
X295951Y87830D01*
G75*
G03*
X298140Y85661I1721J-452D01*
G01*
X295167Y84850D01*
G37*
X295985Y113594D02*
X297243Y114321D01*
G75*
G03*
Y112868I419J-726D01*
G01*
X295985Y113594D01*
G36*
X295985Y113594D02*
X297243Y114321D01*
G75*
G03*
Y112868I419J-726D01*
G01*
X295985Y113594D01*
G37*
X296476Y117409D02*
X296852Y118812D01*
G75*
G03*
X297879Y117784I810J-217D01*
G01*
X296476Y117409D01*
G36*
X296476Y117409D02*
X296852Y118812D01*
G75*
G03*
X297879Y117784I810J-217D01*
G01*
X296476Y117409D01*
G37*
X297662Y113594D02*
X206412D01*
X195162Y102344D01*
X297662Y118594D02*
X295162Y116094D01*
X198912D01*
X195162Y119844D01*
X300162Y71094D02*
X311166D01*
X326166Y56094D01*
X301839Y71094D02*
X300581Y70368D01*
G75*
G03*
Y71821I-419J726D01*
G01*
X301839Y71094D01*
G36*
X301839Y71094D02*
X300581Y70368D01*
G75*
G03*
Y71821I-419J726D01*
G01*
X301839Y71094D01*
G37*
X302726Y79909D02*
X303102Y81312D01*
G75*
G03*
X304129Y80284I810J-217D01*
G01*
X302726Y79909D01*
G36*
X302726Y79909D02*
X303102Y81312D01*
G75*
G03*
X304129Y80284I810J-217D01*
G01*
X302726Y79909D01*
G37*
X304113Y87378D02*
X306782Y88919D01*
G75*
G03*
Y85837I890J-1541D01*
G01*
X304113Y87378D01*
G36*
X304113Y87378D02*
X306782Y88919D01*
G75*
G03*
Y85837I890J-1541D01*
G01*
X304113Y87378D01*
G37*
X307672Y143819D02*
X306131Y146488D01*
G75*
G03*
X309213I1541J890D01*
G01*
X307672Y143819D01*
G36*
X307672Y143819D02*
X306131Y146488D01*
G75*
G03*
X309213I1541J890D01*
G01*
X307672Y143819D01*
G37*
Y147378D02*
Y118594D01*
X298922Y109844D01*
X211412D01*
X192662Y91094D01*
Y59844D01*
X196166Y56341D01*
X315832Y90425D02*
X318531Y88936D01*
G75*
G03*
X315893Y87343I-859J-1558D01*
G01*
X315832Y90425D01*
G36*
X315832Y90425D02*
X318531Y88936D01*
G75*
G03*
X315893Y87343I-859J-1558D01*
G01*
X315832Y90425D01*
G37*
X317672Y143819D02*
X316131Y146488D01*
G75*
G03*
X319213I1541J890D01*
G01*
X317672Y143819D01*
G36*
X317672Y143819D02*
X316131Y146488D01*
G75*
G03*
X319213I1541J890D01*
G01*
X317672Y143819D01*
G37*
X325155Y89894D02*
X328132Y89097D01*
G75*
G03*
X325953Y86917I-461J-1719D01*
G01*
X325155Y89894D01*
G36*
X325155Y89894D02*
X328132Y89097D01*
G75*
G03*
X325953Y86917I-461J-1719D01*
G01*
X325155Y89894D01*
G37*
X326166Y63594D02*
Y77098D01*
X331412Y82344D01*
X338912D01*
X342662Y86094D01*
Y104844D01*
X350162Y112344D01*
X378912D01*
X326166Y65272D02*
X326892Y64014D01*
G75*
G03*
X325439I-726J-419D01*
G01*
X326166Y65272D01*
G36*
X326166Y65272D02*
X326892Y64014D01*
G75*
G03*
X325439I-726J-419D01*
G01*
X326166Y65272D01*
G37*
X327672Y143819D02*
X326131Y146488D01*
G75*
G03*
X329213I1541J890D01*
G01*
X327672Y143819D01*
G36*
X327672Y143819D02*
X326131Y146488D01*
G75*
G03*
X329213I1541J890D01*
G01*
X327672Y143819D01*
G37*
X335155Y89894D02*
X338132Y89097D01*
G75*
G03*
X335953Y86917I-461J-1719D01*
G01*
X335155Y89894D01*
G36*
X335155Y89894D02*
X338132Y89097D01*
G75*
G03*
X335953Y86917I-461J-1719D01*
G01*
X335155Y89894D01*
G37*
X337672Y143819D02*
X336131Y146488D01*
G75*
G03*
X339213I1541J890D01*
G01*
X337672Y143819D01*
G36*
X337672Y143819D02*
X336131Y146488D01*
G75*
G03*
X339213I1541J890D01*
G01*
X337672Y143819D01*
G37*
X346413Y86120D02*
X344999Y84706D01*
X346413Y88636D02*
X344999Y90050D01*
X347672Y143819D02*
X346131Y146488D01*
G75*
G03*
X349213I1541J890D01*
G01*
X347672Y143819D01*
G36*
X347672Y143819D02*
X346131Y146488D01*
G75*
G03*
X349213I1541J890D01*
G01*
X347672Y143819D01*
G37*
X348930Y86120D02*
X350344Y84706D01*
X348930Y88636D02*
X350344Y90050D01*
X376166Y56094D02*
X363912Y68594D01*
Y92344D01*
X381412Y109844D01*
Y132344D01*
X383912Y134844D01*
Y144844D01*
X377235Y112344D02*
X378493Y113071D01*
G75*
G03*
Y111618I419J-726D01*
G01*
X377235Y112344D01*
G36*
X377235Y112344D02*
X378493Y113071D01*
G75*
G03*
Y111618I419J-726D01*
G01*
X377235Y112344D01*
G37*
X383912Y143167D02*
X383185Y144425D01*
G75*
G03*
X384638I726J419D01*
G01*
X383912Y143167D01*
G36*
X383912Y143167D02*
X383185Y144425D01*
G75*
G03*
X384638I726J419D01*
G01*
X383912Y143167D01*
G37*
X386348Y126159D02*
X384944Y126534D01*
G75*
G03*
X385972Y127562I217J810D01*
G01*
X386348Y126159D01*
G36*
X386348Y126159D02*
X384944Y126534D01*
G75*
G03*
X385972Y127562I217J810D01*
G01*
X386348Y126159D01*
G37*
X388912Y58594D02*
Y123594D01*
X385162Y127344D01*
D02*
D24*
X196166Y53968D02*
X193569Y49470D01*
X198762D01*
X196166Y53968D01*
G36*
X196166Y53968D02*
X193569Y49470D01*
X198762D01*
X196166Y53968D01*
G37*
Y56341D02*
Y31754D01*
X216166D02*
Y55848D01*
X218912Y58594D01*
X216166Y53968D02*
X213569Y49470D01*
X218762D01*
X216166Y53968D01*
G36*
X216166Y53968D02*
X213569Y49470D01*
X218762D01*
X216166Y53968D01*
G37*
X226166Y31754D02*
Y56094D01*
X231412Y61341D01*
X226166Y53968D02*
X223569Y49470D01*
X228762D01*
X226166Y53968D01*
G36*
X226166Y53968D02*
X223569Y49470D01*
X228762D01*
X226166Y53968D01*
G37*
X236166D02*
X233569Y49470D01*
X238762D01*
X236166Y53968D01*
G36*
X236166Y53968D02*
X233569Y49470D01*
X238762D01*
X236166Y53968D01*
G37*
Y56094D02*
Y31754D01*
X246166D02*
Y54844D01*
Y53968D02*
X243569Y49470D01*
X248762D01*
X246166Y53968D01*
G36*
X246166Y53968D02*
X243569Y49470D01*
X248762D01*
X246166Y53968D01*
G37*
X256166Y31754D02*
Y57344D01*
Y53968D02*
X253569Y49470D01*
X258762D01*
X256166Y53968D01*
G36*
X256166Y53968D02*
X253569Y49470D01*
X258762D01*
X256166Y53968D01*
G37*
X266166Y31754D02*
Y54844D01*
Y53968D02*
X263569Y49470D01*
X268762D01*
X266166Y53968D01*
G36*
X266166Y53968D02*
X263569Y49470D01*
X268762D01*
X266166Y53968D01*
G37*
X271412Y58594D02*
X273666D01*
X276166Y56094D01*
Y31754D01*
Y53968D02*
X273569Y49470D01*
X278762D01*
X276166Y53968D01*
G36*
X276166Y53968D02*
X273569Y49470D01*
X278762D01*
X276166Y53968D01*
G37*
X280162Y58594D02*
X282416D01*
X286166Y54844D01*
Y31754D01*
Y53968D02*
X283569Y49470D01*
X288762D01*
X286166Y53968D01*
G36*
X286166Y53968D02*
X283569Y49470D01*
X288762D01*
X286166Y53968D01*
G37*
X296166Y31754D02*
Y67098D01*
X296412Y67344D01*
X296166Y53968D02*
X293569Y49470D01*
X298762D01*
X296166Y53968D01*
G36*
X296166Y53968D02*
X293569Y49470D01*
X298762D01*
X296166Y53968D01*
G37*
X301412Y63594D02*
X306166Y58841D01*
Y31754D01*
Y53968D02*
X303569Y49470D01*
X308762D01*
X306166Y53968D01*
G36*
X306166Y53968D02*
X303569Y49470D01*
X308762D01*
X306166Y53968D01*
G37*
X326166D02*
X323569Y49470D01*
X328762D01*
X326166Y53968D01*
G36*
X326166Y53968D02*
X323569Y49470D01*
X328762D01*
X326166Y53968D01*
G37*
Y56094D02*
Y31754D01*
X376166D02*
Y56094D01*
Y53968D02*
X373569Y49470D01*
X378762D01*
X376166Y53968D01*
G36*
X376166Y53968D02*
X373569Y49470D01*
X378762D01*
X376166Y53968D01*
G37*
X386166Y31754D02*
Y55848D01*
X388912Y58594D01*
X386166Y53968D02*
X383569Y49470D01*
X388762D01*
X386166Y53968D01*
G36*
X386166Y53968D02*
X383569Y49470D01*
X388762D01*
X386166Y53968D01*
G37*
D02*
D25*
X145162Y67344D03*
Y129844D03*
Y157344D03*
X176199Y60593D03*
X185162Y157344D03*
X186183Y60343D03*
X225162Y157344D03*
X242662Y129844D03*
X262662D03*
X265162Y157344D03*
X282662Y129844D03*
X302662D03*
X305162Y157344D03*
X322662Y129844D03*
X333912Y66094D03*
X342662Y129844D03*
X345162Y157344D03*
X360162Y66094D03*
X361412Y103594D03*
X362662Y129844D03*
D02*
D27*
X170162Y77344D03*
Y134844D03*
X195162Y102344D03*
Y119844D03*
X202662Y58594D03*
X213912D03*
X223912D03*
X233912D03*
X241412D03*
X251412D03*
X258912D03*
X266412D03*
X271412D03*
X272662Y122344D03*
X280162Y58594D03*
X290162Y61094D03*
X296412Y67344D03*
X297662Y113594D03*
Y118594D03*
X300162Y71094D03*
X301412Y63594D03*
X303912Y81094D03*
X326166Y63594D03*
X378912Y112344D03*
X383912Y144844D03*
X385162Y127344D03*
D02*
D28*
X146166Y31754D03*
X156166D03*
X166166D03*
X176166D03*
X186166D03*
X196166D03*
X206166D03*
X216166D03*
X226166D03*
X236166D03*
X246166D03*
X256166D03*
X266166D03*
X276166D03*
X286166D03*
X296166D03*
X306166D03*
X316166D03*
X326166D03*
X336166D03*
X346166D03*
X356166D03*
X366166D03*
X376166D03*
X386166D03*
D02*
D72*
X197672Y87378D03*
D02*
D73*
Y147378D03*
X207672Y87378D03*
Y147378D03*
X217672Y87378D03*
Y147378D03*
X227672Y87378D03*
Y147378D03*
X237672Y87378D03*
Y147378D03*
X247672Y87378D03*
Y147378D03*
X257672Y87378D03*
Y147378D03*
X267672Y87378D03*
Y147378D03*
X277672Y87378D03*
Y147378D03*
X287672Y87378D03*
Y147378D03*
X297672Y87378D03*
Y147378D03*
X307672Y87378D03*
Y147378D03*
X317672Y87378D03*
Y147378D03*
X327672Y87378D03*
Y147378D03*
X337672Y87378D03*
Y147378D03*
X347672Y87378D03*
Y147378D03*
D02*
D75*
X157662Y147344D03*
X177662D03*
X0Y0D02*
M02*
