G04 DesignSpark PCB PRO Gerber Version 10.0 Build 5299*
G04 #@! TF.Part,Single*
G04 #@! TF.FileFunction,Legend,Top*
G04 #@! TF.FilePolarity,Positive*
%FSLAX35Y35*%
%MOIN*%
%ADD18C,0.00197*%
%ADD15C,0.00500*%
%ADD21C,0.00591*%
%ADD71C,0.00709*%
%ADD20C,0.00787*%
G04 #@! TD.AperFunction*
X0Y0D02*
D02*
D15*
X142627Y9707D02*
X389487D01*
G75*
G03*
X394985Y15204I0J5497D01*
G01*
Y163602D01*
G75*
G03*
X391412Y167174I-3573J0D01*
G01*
X141412D01*
G75*
G03*
X137347Y163109I0J-4065D01*
G01*
Y14987D01*
G75*
G03*
X142627Y9707I5280J0D01*
G01*
X158287Y138907D02*
X157974Y138594D01*
X157349Y138282D01*
X156412D01*
X155787Y138594D01*
X155474Y138907D01*
X155162Y139532D01*
Y140782D01*
X155474Y141407D01*
X155787Y141720D01*
X156412Y142032D01*
X157349D01*
X157974Y141720D01*
X158287Y141407D01*
X160787Y138282D02*
X162037D01*
X161412D02*
Y142032D01*
X160787Y141407D01*
X166412Y144344D02*
Y150344D01*
Y147344D02*
X162412D01*
X168912Y144344D02*
Y150344D01*
X172912Y147344D02*
X168912D01*
X189849Y153282D02*
X191099D01*
X190474D02*
Y157032D01*
X189849D02*
X191099D01*
X197037Y153907D02*
X196724Y153594D01*
X196099Y153282D01*
X195162D01*
X194537Y153594D01*
X194224Y153907D01*
X193912Y154532D01*
Y155782D01*
X194224Y156407D01*
X194537Y156720D01*
X195162Y157032D01*
X196099D01*
X196724Y156720D01*
X197037Y156407D01*
X199537Y153282D02*
X200787D01*
X200162D02*
Y157032D01*
X199537Y156407D01*
X266291Y55139D02*
X265978Y54827D01*
X265353Y54514D01*
X264416D01*
X263791Y54827D01*
X263478Y55139D01*
X263166Y55764D01*
Y57014D01*
X263478Y57639D01*
X263791Y57952D01*
X264416Y58264D01*
X265353D01*
X265978Y57952D01*
X266291Y57639D01*
X268166Y55764D02*
Y57014D01*
X268478Y57639D01*
X268791Y57952D01*
X269416Y58264D01*
X270041D01*
X270666Y57952D01*
X270978Y57639D01*
X271291Y57014D01*
Y55764D01*
X270978Y55139D01*
X270666Y54827D01*
X270041Y54514D01*
X269416D01*
X268791Y54827D01*
X268478Y55139D01*
X268166Y55764D01*
X273166Y54514D02*
Y58264D01*
X276291Y54514D01*
Y58264D01*
X278166Y54514D02*
Y58264D01*
X281291Y54514D01*
Y58264D01*
X283791Y54514D02*
X285041D01*
X284416D02*
Y58264D01*
X283791Y57639D01*
D02*
D18*
X238612Y96094D02*
X266912D01*
X238612Y96594D02*
X266912D01*
X238612Y97094D02*
X266912D01*
X238612Y97894D02*
X266912D01*
X238612Y98394D02*
X266912D01*
X238612Y98894D02*
X242412D01*
X238612Y99394D02*
X241512D01*
X238612Y99894D02*
X241212D01*
X238612Y100394D02*
X241212D01*
X238612Y100894D02*
X241312D01*
X238612Y101394D02*
X241511D01*
X238612Y101694D02*
X241912D01*
X238612Y102194D02*
X247612D01*
X238612Y102694D02*
X247312D01*
X238612Y103194D02*
X266912D01*
X238612Y103694D02*
X266912D01*
X238612Y104194D02*
X266912D01*
X238612Y104694D02*
X241612Y104695D01*
X238612Y105194D02*
X241612Y105195D01*
X238612Y105494D02*
X241612Y105494D01*
X238612Y105994D02*
X241612Y105994D01*
X238612Y106494D02*
X241612D01*
X238612Y106994D02*
X241112D01*
X238612Y107494D02*
X241612D01*
X238612Y107994D02*
X241712Y107995D01*
X238612Y108494D02*
X266912D01*
X238612Y108994D02*
X249812Y108994D01*
X238612Y109294D02*
X249112D01*
X238612Y109794D02*
X246612D01*
X238612Y110294D02*
X241312D01*
X238612Y110794D02*
X241312D01*
X238612Y111294D02*
X241312D01*
X238612Y111794D02*
X241312D01*
X238612Y112294D02*
X241012D01*
X238612Y112794D02*
X242812D01*
X238612Y113594D02*
X241212D01*
X238612Y114094D02*
X266912D01*
X238612Y114594D02*
X266912D01*
X238612Y115094D02*
X266912D01*
X238612Y115594D02*
X266912D01*
X238612Y116094D02*
X266912D01*
X238612Y116594D02*
X266912D01*
X238612Y117394D02*
X266912D01*
X238612Y117894D02*
X266912D01*
X238612Y118394D02*
X266912D01*
X238612Y118894D02*
X266912D01*
X238612Y119394D02*
X266912D01*
X238612Y119894D02*
X266912D01*
X238612Y120394D02*
X266912D01*
X238612Y120894D02*
X266912D01*
X238612Y121194D02*
X266912D01*
X238612Y121694D02*
X266912D01*
X238612Y122194D02*
X266912D01*
X238612Y122694D02*
X266912D01*
X238612Y123194D02*
X266912D01*
X238612Y123694D02*
X266912D01*
X238612Y124194D02*
X266912D01*
X238612Y96194D02*
X266912Y96194D01*
X238612Y96294D02*
X266912D01*
X238612Y96394D02*
X266912Y96395D01*
X238612Y96494D02*
X266912D01*
X238612Y96694D02*
X266913D01*
X238612Y96794D02*
X266912D01*
X238612Y96894D02*
X266912Y96894D01*
X238612Y96994D02*
X266912D01*
X238612Y97194D02*
X266913D01*
X238612Y97294D02*
X266912Y97294D01*
X238612Y97394D02*
X266912Y97394D01*
X238612Y97494D02*
X266912D01*
X238612Y97594D02*
X266912D01*
X238612Y97694D02*
X266913D01*
X238612Y97794D02*
X266912Y97794D01*
X238612Y97994D02*
X266912D01*
X238612Y98094D02*
X266912D01*
X238612Y98194D02*
X266913D01*
X238612Y98294D02*
X266912Y98294D01*
X238612Y98494D02*
X266912Y98495D01*
X238612Y98594D02*
X266912D01*
X238612Y98694D02*
X266913D01*
X238612Y98794D02*
X266912Y98794D01*
X238612Y98994D02*
X242012Y98995D01*
X238612Y99094D02*
X241812D01*
X238612Y99194D02*
X241612Y99195D01*
X238612Y99294D02*
X241512Y99294D01*
X238612Y99494D02*
X241412D01*
X238612Y99594D02*
X241312D01*
X238612Y99694D02*
X241312Y99694D01*
X238612Y99794D02*
X241312D01*
X238612Y99994D02*
X241212D01*
X238612Y100094D02*
X241213D01*
X238612Y100194D02*
X241212D01*
X238612Y100294D02*
X241212D01*
X238612Y100494D02*
X241212D01*
X238612Y100594D02*
X241213D01*
X238612Y100694D02*
X241212Y100694D01*
X238612Y100794D02*
X241212D01*
X238612Y100994D02*
X241312D01*
X238612Y101094D02*
X241312D01*
X238612Y101194D02*
X241412Y101194D01*
X238612Y101294D02*
X241512D01*
X238612Y101494D02*
X241612D01*
X238612Y101594D02*
X241812D01*
X238612Y101794D02*
X242212D01*
X238612Y101894D02*
X247612D01*
X238612Y101994D02*
X247612D01*
X238612Y102094D02*
X247612Y102094D01*
X238612Y102294D02*
X247612D01*
X238612Y102394D02*
X247312Y102394D01*
X238612Y102494D02*
X247312D01*
X238612Y102594D02*
X247312Y102595D01*
X238612Y102794D02*
X247312Y102795D01*
X238612Y102894D02*
X266912D01*
X238612Y102994D02*
X266913D01*
X238612Y103094D02*
X266912D01*
X238612Y103294D02*
X266912Y103294D01*
X238612Y103394D02*
X266912D01*
X238612Y103494D02*
X266912Y103495D01*
X238612Y103594D02*
X266912D01*
X238612Y103794D02*
X266912Y103794D01*
X238612Y103894D02*
X266912D01*
X238612Y103994D02*
X266912Y103995D01*
X238612Y104094D02*
X266912D01*
X238612Y104294D02*
X266913D01*
X238612Y104394D02*
X244012Y104395D01*
X238612Y104494D02*
X241612Y104495D01*
X238612Y104594D02*
X241612D01*
X238612Y104794D02*
X241612Y104794D01*
X238612Y104894D02*
X241612D01*
X238612Y104994D02*
X241612D01*
X238612Y105094D02*
X241612D01*
X238612Y105294D02*
X241612Y105294D01*
X238612Y105394D02*
X241612D01*
X238612Y105594D02*
X241612D01*
X238612Y105694D02*
X241612D01*
X238612Y105794D02*
X241612D01*
X238612Y105894D02*
X241612D01*
X238612Y106094D02*
X241612D01*
X238612Y106194D02*
X241612D01*
X238612Y106294D02*
X241612Y106295D01*
X238612Y106394D02*
X241612D01*
X238612Y106594D02*
X241112D01*
X238612Y106694D02*
X241112D01*
X238612Y106794D02*
X241112Y106795D01*
X238612Y106894D02*
X241112D01*
X238612Y107094D02*
X241112Y107094D01*
X238612Y107194D02*
X241612D01*
X238612Y107294D02*
X241612Y107295D01*
X238612Y107394D02*
X241612D01*
X238612Y107594D02*
X241612Y107594D01*
X238612Y107694D02*
X241612D01*
X238612Y107794D02*
X241612Y107795D01*
X238612Y107894D02*
X241612D01*
X238612Y108094D02*
X241712D01*
X238612Y108194D02*
X241812D01*
X238612Y108294D02*
X242112Y108295D01*
X238612Y108394D02*
X255712D01*
X238612Y108594D02*
X266913D01*
X238612Y108694D02*
X266912Y108694D01*
X238612Y108794D02*
X266912Y108794D01*
X238612Y108894D02*
X266912D01*
X238612Y109094D02*
X249412D01*
X238612Y109194D02*
X249212D01*
X238612Y109394D02*
X249112D01*
X238612Y109494D02*
X249012D01*
X238612Y109594D02*
X249012D01*
X238612Y109694D02*
X249012D01*
X238612Y109894D02*
X241312D01*
X238612Y109994D02*
X241312D01*
X238612Y110094D02*
X241312D01*
X238612Y110194D02*
X241312D01*
X238612Y110394D02*
X241312D01*
X238612Y110494D02*
X241312D01*
X238612Y110594D02*
X241312Y110594D01*
X238612Y110694D02*
X241312D01*
X238612Y110894D02*
X241312D01*
X238612Y110994D02*
X241312D01*
X238612Y111094D02*
X241312D01*
X238612Y111194D02*
X241312D01*
X238612Y111394D02*
X241312D01*
X238612Y111494D02*
X241312D01*
X238612Y111594D02*
X241312Y111594D01*
X238612Y111694D02*
X241312D01*
X238612Y111894D02*
X241312D01*
X238612Y111994D02*
X241012D01*
X238612Y112094D02*
X241012Y112094D01*
X238612Y112194D02*
X241012D01*
X238612Y112394D02*
X241012D01*
X238612Y112494D02*
X241012Y112494D01*
X238612Y112594D02*
X242812Y112594D01*
X238612Y112694D02*
X242812D01*
X238612Y112894D02*
X242812D01*
X238612Y112994D02*
X241412D01*
X238612Y113094D02*
X241312Y113094D01*
X238612Y113194D02*
X241212D01*
X238612Y113294D02*
X241212Y113294D01*
X238612Y113394D02*
X241212D01*
X238612Y113494D02*
X241212Y113495D01*
X238612Y113694D02*
X241312D01*
X238612Y113794D02*
X241412D01*
X238612Y113894D02*
X266913D01*
X238612Y113994D02*
X266912Y113994D01*
X238612Y114194D02*
X266912Y114195D01*
X238612Y114294D02*
X266912D01*
X238612Y114394D02*
X266913D01*
X238612Y114494D02*
X266912Y114494D01*
X238612Y114694D02*
X266912Y114694D01*
X238612Y114794D02*
X266912D01*
X238612Y114894D02*
X266913D01*
X238612Y114994D02*
X266912D01*
X238612Y115194D02*
X266912Y115194D01*
X238612Y115294D02*
X266912D01*
X238612Y115394D02*
X266912Y115395D01*
X238612Y115494D02*
X266912D01*
X238612Y115694D02*
X266912Y115694D01*
X238612Y115794D02*
X266912D01*
X238612Y115894D02*
X266912Y115895D01*
X238612Y115994D02*
X266912D01*
X238612Y116194D02*
X266913D01*
X238612Y116294D02*
X266912D01*
X238612Y116394D02*
X266912Y116394D01*
X238612Y116494D02*
X266912D01*
X238612Y116694D02*
X266913D01*
X238612Y116794D02*
X266912Y116794D01*
X238612Y116894D02*
X266912Y116894D01*
X238612Y116994D02*
X266912D01*
X238612Y117094D02*
X266912D01*
X238612Y117194D02*
X266913D01*
X238612Y117294D02*
X266912Y117294D01*
X238612Y117494D02*
X266912D01*
X238612Y117594D02*
X266912D01*
X238612Y117694D02*
X266913D01*
X238612Y117794D02*
X266912Y117794D01*
X238612Y117994D02*
X266912Y117995D01*
X238612Y118094D02*
X266912D01*
X238612Y118194D02*
X266913D01*
X238612Y118294D02*
X266912Y118294D01*
X238612Y118494D02*
X266912Y118494D01*
X238612Y118594D02*
X266912D01*
X238612Y118694D02*
X266913D01*
X238612Y118794D02*
X266912D01*
X238612Y118994D02*
X266912Y118994D01*
X238612Y119094D02*
X266912D01*
X238612Y119194D02*
X266912Y119195D01*
X238612Y119294D02*
X266912D01*
X238612Y119494D02*
X266912Y119494D01*
X238612Y119594D02*
X266912D01*
X238612Y119694D02*
X266912Y119695D01*
X238612Y119794D02*
X266912D01*
X238612Y119994D02*
X266913D01*
X238612Y120094D02*
X266912D01*
X238612Y120194D02*
X266912Y120195D01*
X238612Y120294D02*
X266912D01*
X238612Y120494D02*
X266913D01*
X238612Y120594D02*
X266912Y120594D01*
X238612Y120694D02*
X266912Y120694D01*
X238612Y120794D02*
X266912D01*
X238612Y120994D02*
X266913D01*
X238612Y121094D02*
X266912Y121094D01*
X238612Y121294D02*
X266912D01*
X238612Y121394D02*
X266912D01*
X238612Y121494D02*
X266913D01*
X238612Y121594D02*
X266912Y121594D01*
X238612Y121794D02*
X266912Y121795D01*
X238612Y121894D02*
X266912D01*
X238612Y121994D02*
X266913D01*
X238612Y122094D02*
X266912Y122094D01*
X238612Y122294D02*
X266912D01*
X238612Y122394D02*
X266912D01*
X238612Y122494D02*
X266913D01*
X238612Y122594D02*
X266912D01*
X238612Y122794D02*
X266912Y122794D01*
X238612Y122894D02*
X266912D01*
X238612Y122994D02*
X266912Y122995D01*
X238612Y123094D02*
X266912D01*
X238612Y123294D02*
X266912Y123294D01*
X238612Y123394D02*
X266912D01*
X238612Y123494D02*
X266912Y123495D01*
X238612Y123594D02*
X266912D01*
X238612Y123794D02*
X266913D01*
X238612Y123894D02*
X266912D01*
X238612Y123994D02*
X266912Y123995D01*
X238612Y124094D02*
X266912D01*
X238612Y124294D02*
X266913D01*
X242112Y100195D02*
X244512Y100194D01*
X242112Y100294D02*
X244612D01*
X242112Y100094D02*
X244412D01*
X242112Y100394D02*
X244712D01*
X242112Y100494D02*
X244912Y100494D01*
X242112Y100594D02*
X245112D01*
X242112Y112994D02*
X242812D01*
X242112Y113794D02*
X266912D01*
X242212Y110294D02*
X242812D01*
X242212Y110794D02*
X242812D01*
X242212Y111294D02*
X242812D01*
X242212Y113594D02*
X242512D01*
X242212Y99794D02*
X243212D01*
X242212Y99895D02*
X243212Y99894D01*
X242212Y99994D02*
X243212D01*
X242212Y100694D02*
X243212Y100694D01*
X242212Y100794D02*
X243212D01*
X242212Y100894D02*
X243212Y100894D01*
X242212Y109894D02*
X242812D01*
X242212Y110094D02*
X242812D01*
X242212Y110195D02*
X242812Y110194D01*
X242212Y110394D02*
X242812D01*
X242212Y110594D02*
X242812Y110594D01*
X242212Y110694D02*
X242812D01*
X242212Y110894D02*
X242812D01*
X242212Y111094D02*
X242812Y111094D01*
X242212Y111194D02*
X242812D01*
X242212Y111394D02*
X242812D01*
X242212Y111594D02*
X242812Y111594D01*
X242212Y111694D02*
X242812D01*
X242212Y111795D02*
X242812Y111794D01*
X242212Y111894D02*
X242812D01*
X242212Y112094D02*
X242812Y112094D01*
X242212Y112194D02*
X242812D01*
X242212Y112295D02*
X242812Y112294D01*
X242212Y112394D02*
X242812D01*
X242212Y113094D02*
X242812Y113094D01*
X242212Y113194D02*
X242512Y113195D01*
X242212Y113694D02*
X242512Y113695D01*
X242213Y109994D02*
X242812D01*
X242213Y110494D02*
X242812D01*
X242213Y110994D02*
X242812D01*
X242213Y111494D02*
X242812D01*
X242213Y111994D02*
X242812D01*
X242213Y112494D02*
X242812D01*
X242213Y113494D02*
X242512Y113495D01*
X242312Y100994D02*
X243113D01*
X242312Y99694D02*
X243112Y99695D01*
X242312Y101094D02*
X243112D01*
X242312Y113294D02*
X242512Y113294D01*
X242312Y113394D02*
X242512D01*
X242412Y99594D02*
X243012D01*
X242511Y107194D02*
X247912D01*
X242512Y101194D02*
X242912Y101194D01*
X242512Y104494D02*
X243812D01*
X242512Y104594D02*
X243712Y104594D01*
X242512Y104694D02*
X243612D01*
X242512Y104894D02*
X243512Y104895D01*
X242512Y104994D02*
X243512D01*
X242512Y105094D02*
X243512Y105094D01*
X242512Y105395D02*
X243512D01*
X242512Y105494D02*
X243512D01*
X242512Y105794D02*
X243512D01*
X242512Y105895D02*
X243512D01*
X242512Y105994D02*
X243512D01*
X242512Y106194D02*
X243512D01*
X242512Y106294D02*
X243512D01*
X242512Y106395D02*
X243512D01*
X242512Y106494D02*
X243512D01*
X242512Y107294D02*
X253612Y107294D01*
X242512Y107494D02*
X253612D01*
X242512Y107694D02*
X253613D01*
X242512Y104794D02*
X243613D01*
X242512Y105194D02*
X243512D01*
X242512Y105294D02*
X243512D01*
X242512Y105595D02*
X243512Y105594D01*
X242512Y105694D02*
X243512D01*
X242512Y106095D02*
X243512Y106094D01*
X242512Y107394D02*
X253612Y107394D01*
X242512Y107594D02*
X253612D01*
X242612Y99494D02*
X242912Y99494D01*
X243012Y98894D02*
X245112D01*
X243112Y106894D02*
X243212D01*
X243112Y107795D02*
X253612Y107794D01*
X243112Y107894D02*
X253612D01*
X243112Y108295D02*
X255612Y108294D01*
X243112Y106594D02*
X243212D01*
X243112Y106694D02*
X243212D01*
X243112Y106994D02*
X243212D01*
X243112Y107094D02*
X243212Y107094D01*
X243112Y107994D02*
X253612Y107995D01*
X243112Y108094D02*
X255513Y108094D01*
X243112Y108194D02*
X255512D01*
X243113Y106794D02*
X243212Y106794D01*
X243212Y101794D02*
X245212D01*
X243412Y98994D02*
X244712Y98994D01*
X243512Y101694D02*
X244912Y101694D01*
X243512Y99094D02*
X244612Y99094D01*
X243612Y101594D02*
X244712Y101594D01*
X243712Y99194D02*
X244512Y99194D01*
X243712Y109994D02*
X244312D01*
X243712Y110294D02*
X244312D01*
X243712Y110494D02*
X244312D01*
X243712Y110594D02*
X244312D01*
X243712Y110794D02*
X244312D01*
X243712Y110994D02*
X244312D01*
X243712Y111094D02*
X244312D01*
X243712Y111294D02*
X244312D01*
X243712Y111494D02*
X244312D01*
X243712Y111594D02*
X244312D01*
X243712Y111794D02*
X244312D01*
X243712Y112094D02*
X244312D01*
X243712Y112294D02*
X244312D01*
X243712Y112594D02*
X244312D01*
X243712Y112794D02*
X244312D01*
X243712Y113094D02*
X244312D01*
X243712Y113294D02*
X244012Y113294D01*
X243712Y113594D02*
X244012D01*
X243712Y109894D02*
X244312D01*
X243712Y110094D02*
X244312D01*
X243712Y110194D02*
X244312Y110194D01*
X243712Y110394D02*
X244312D01*
X243712Y110694D02*
X244312Y110694D01*
X243712Y110894D02*
X244312D01*
X243712Y111194D02*
X244312D01*
X243712Y111394D02*
X244312D01*
X243712Y111694D02*
X244312D01*
X243712Y111894D02*
X244312D01*
X243712Y111994D02*
X244312D01*
X243712Y112194D02*
X244312D01*
X243712Y112394D02*
X244312D01*
X243712Y112494D02*
X244312Y112494D01*
X243712Y112694D02*
X244312D01*
X243712Y112894D02*
X244312D01*
X243712Y112994D02*
X244312Y112994D01*
X243712Y113194D02*
X244012D01*
X243712Y113394D02*
X244012D01*
X243712Y113494D02*
X244012Y113495D01*
X243712Y113694D02*
X244012D01*
X243812Y99294D02*
X244412D01*
X243812Y99394D02*
X244412Y99394D01*
X243812Y101494D02*
X244613D01*
X243912Y99594D02*
X244312D01*
X243912Y101294D02*
X244412D01*
X243912Y99494D02*
X244412D01*
X243912Y101395D02*
X244512Y101394D01*
X244012Y99694D02*
X244312D01*
X244012Y99894D02*
X244412Y99895D01*
X244012Y100694D02*
X245412Y100695D01*
X244012Y101095D02*
X244412Y101094D01*
X244012Y101194D02*
X244412Y101194D01*
X244012Y99794D02*
X244312Y99794D01*
X244012Y99994D02*
X244412Y99994D01*
X244012Y100794D02*
X244412D01*
X244012Y100894D02*
X244412Y100895D01*
X244012Y100994D02*
X244411D01*
Y105294D02*
X245312D01*
X244412Y105094D02*
X245212D01*
X244412Y105394D02*
X245312D01*
X244412Y105594D02*
X245312D01*
X244412Y105794D02*
X245312D01*
X244412Y105894D02*
X245312D01*
X244412Y105994D02*
X245312Y105994D01*
X244412Y106094D02*
X245312D01*
X244412Y106294D02*
X245312D01*
X244412Y106394D02*
X245312Y106395D01*
X244412Y106494D02*
X245312Y106494D01*
X244412Y106594D02*
X245312Y106595D01*
X244412Y106794D02*
X245312D01*
X244412Y106894D02*
X245312Y106894D01*
X244412Y106994D02*
X245312Y106994D01*
X244412Y105195D02*
X245311Y105194D01*
X244412Y105494D02*
X245312Y105494D01*
X244412Y105694D02*
X245311D01*
X244412Y106194D02*
X245311D01*
X244412Y106694D02*
X245311D01*
X244412Y107094D02*
X245312Y107095D01*
X244512Y104994D02*
X245012D01*
X244612Y104894D02*
X244812Y104894D01*
X245212Y109994D02*
X246112D01*
X245212Y110294D02*
X245912D01*
X245212Y110794D02*
X245712D01*
X245212Y111294D02*
X245712D01*
X245212Y111794D02*
X245812D01*
X245212Y112094D02*
X245912Y112095D01*
X245212Y112294D02*
X246112D01*
X245212Y112594D02*
X246612D01*
X245212Y112794D02*
X255512D01*
X245212Y113094D02*
X255512D01*
X245212Y113294D02*
X255212D01*
X245212Y113594D02*
X255212D01*
X245212Y100794D02*
X245912D01*
X245212Y104394D02*
X250811D01*
X245212Y109894D02*
X246312Y109895D01*
X245212Y110094D02*
X246012D01*
X245212Y110194D02*
X245912D01*
X245212Y110394D02*
X245812Y110395D01*
X245212Y110494D02*
X245811D01*
X245212Y110594D02*
X245712D01*
X245212Y110694D02*
X245712D01*
X245212Y110894D02*
X245712D01*
X245212Y110994D02*
X245712D01*
X245212Y111094D02*
X245712D01*
X245212Y111194D02*
X245712D01*
X245212Y111394D02*
X245712D01*
X245212Y111494D02*
X245712D01*
X245212Y111594D02*
X245712D01*
X245212Y111694D02*
X245712D01*
X245212Y111894D02*
X245812D01*
X245212Y111994D02*
X245812D01*
X245212Y112194D02*
X246012D01*
X245212Y112394D02*
X246212D01*
X245212Y112494D02*
X246312D01*
X245212Y112694D02*
X255512D01*
X245212Y112894D02*
X255513D01*
X245212Y112994D02*
X255512Y112994D01*
X245212Y113194D02*
X255212D01*
X245212Y113394D02*
X255212D01*
X245212Y113494D02*
X255212Y113494D01*
X245212Y113694D02*
X255212D01*
X245311Y99594D02*
X245912D01*
X245312Y99694D02*
X246012Y99694D01*
X245312Y99794D02*
X246112Y99794D01*
X245312Y99894D02*
X246212D01*
X245312Y100894D02*
X246212Y100894D01*
X245312Y100994D02*
X246112D01*
X245412Y101094D02*
X246112Y101094D01*
X245412Y104495D02*
X245412Y99494D02*
X245612Y99494D01*
X245412Y99994D02*
X246212Y99994D01*
X245512Y101194D02*
X245912Y101194D01*
X245612Y98894D02*
X266912D01*
X245612Y100094D02*
X246212D01*
X245912Y100195D02*
X246212Y100194D01*
X246012Y98994D02*
X266912Y98994D01*
X246212Y104694D02*
X246812D01*
X246212Y105194D02*
X246812Y105194D01*
X246212Y105494D02*
X246812D01*
X246212Y105994D02*
X246812D01*
X246212Y106494D02*
X246812D01*
X246212Y106994D02*
X246512D01*
X246212Y99094D02*
X246311D01*
X246212Y101794D02*
X247612D01*
X246212Y104494D02*
X246812Y104494D01*
X246212Y104594D02*
X246812Y104594D01*
X246212Y104794D02*
X246812D01*
X246212Y104894D02*
X246812Y104895D01*
X246212Y104994D02*
X246812Y104994D01*
X246212Y105094D02*
X246812D01*
X246212Y105294D02*
X246812D01*
X246212Y105394D02*
X246812Y105395D01*
X246212Y105594D02*
X246812D01*
X246212Y105694D02*
X246812Y105694D01*
X246212Y105794D02*
X246812D01*
X246212Y105894D02*
X246812Y105895D01*
X246212Y106094D02*
X246812Y106095D01*
X246212Y106194D02*
X246812Y106194D01*
X246212Y106294D02*
X246812D01*
X246212Y106394D02*
X246812Y106395D01*
X246212Y106594D02*
X246512D01*
X246212Y106694D02*
X246513D01*
X246212Y106794D02*
X246512D01*
X246212Y106894D02*
X246512D01*
X246212Y107094D02*
X246512D01*
Y101694D02*
X247612Y101694D01*
X246612Y110894D02*
X249312D01*
X246612Y110794D02*
X247812D01*
X246612Y110994D02*
X249412D01*
X246712Y111794D02*
X247612D01*
X246712Y101594D02*
X247612Y101594D01*
X246712Y110594D02*
X247812D01*
X246712Y110694D02*
X247812Y110694D01*
X246712Y111694D02*
X247612D01*
X246812Y110494D02*
X247712Y110494D01*
X246812Y101494D02*
X247612D01*
X246812Y111894D02*
X247512D01*
X246912Y110394D02*
X247612D01*
X246912Y101394D02*
X247612D01*
X246912Y111994D02*
X247412D01*
X247012Y101194D02*
X247612D01*
X247012Y101094D02*
X247612Y101094D01*
X247012Y101294D02*
X247612D01*
X247112Y99294D02*
X247612D01*
X247112Y99494D02*
X247612D01*
X247112Y99794D02*
X247612D01*
X247112Y99994D02*
X247612D01*
X247112Y100294D02*
X247612D01*
X247112Y100494D02*
X247612D01*
X247112Y100794D02*
X247612D01*
X247112Y99194D02*
X247612D01*
X247112Y99394D02*
X247612D01*
X247112Y99594D02*
X247612D01*
X247112Y99694D02*
X247612D01*
X247112Y99894D02*
X247612D01*
X247112Y100094D02*
X247612D01*
X247112Y100194D02*
X247612D01*
X247112Y100394D02*
X247612D01*
X247112Y100594D02*
X247612D01*
X247112Y100694D02*
X247612D01*
X247112Y100894D02*
X247612D01*
X247112Y100994D02*
X247612D01*
X247112Y112094D02*
X247212D01*
X247212Y99094D02*
X247612D01*
X247612Y107094D02*
X247712Y107094D01*
X247711Y104794D02*
X248612D01*
X247711Y105294D02*
X248612D01*
X247711Y105794D02*
X248612D01*
X247712Y104495D02*
X248612Y104494D01*
X247712Y104594D02*
X248612D01*
X247712Y104894D02*
X248612Y104894D01*
X247712Y105094D02*
X248612D01*
X247712Y105394D02*
X248612D01*
X247712Y105494D02*
X248612Y105494D01*
X247712Y105594D02*
X248612D01*
X247712Y105894D02*
X248612Y105894D01*
X247712Y105994D02*
X248612Y105994D01*
X247712Y106094D02*
X248612D01*
X247712Y106294D02*
X248612D01*
X247712Y104695D02*
X248612Y104694D01*
X247712Y104994D02*
X248612Y104994D01*
X247712Y105195D02*
X248612Y105194D01*
X247712Y105694D02*
X248612D01*
X247712Y106194D02*
X248612D01*
X247712Y112594D02*
X249712D01*
X247812Y106395D02*
X248612Y106394D01*
X247812Y109794D02*
X249012D01*
X247912Y106494D02*
X248612D01*
X248012Y106594D02*
X248512D01*
X248012Y109894D02*
X249012D01*
X248012Y112494D02*
X249512D01*
X248112Y112394D02*
X249312D01*
X248212Y109994D02*
X249111D01*
X248212Y112295D02*
X249312D01*
X248312Y110094D02*
X249112D01*
X248312Y112194D02*
X249212D01*
X248412Y110194D02*
X249312Y110195D01*
X248413Y112094D02*
X249112Y112094D01*
X248512Y99094D02*
X249111D01*
X248512Y99394D02*
X249112D01*
X248512Y99694D02*
X249112D01*
X248512Y99894D02*
X249112D01*
X248512Y100194D02*
X249112D01*
X248512Y100394D02*
X249112D01*
X248512Y100694D02*
X249112D01*
X248512Y100894D02*
X249112Y100894D01*
X248512Y101194D02*
X249112D01*
X248512Y101394D02*
X249111D01*
X248512Y101694D02*
X249112D01*
X248512Y101894D02*
X249111D01*
X248512Y102194D02*
X249112D01*
X248512Y102394D02*
X248812Y102394D01*
X248512Y102694D02*
X248812D01*
X248512Y110294D02*
X249312D01*
X248512Y110494D02*
X249212D01*
X248512Y111794D02*
X249112D01*
X248512Y99194D02*
X249112Y99194D01*
X248512Y99294D02*
X249112Y99294D01*
X248512Y99494D02*
X249112Y99495D01*
X248512Y99594D02*
X249111D01*
X248512Y99794D02*
X249112Y99794D01*
X248512Y99994D02*
X249112D01*
X248512Y100094D02*
X249111D01*
X248512Y100294D02*
X249112D01*
X248512Y100494D02*
X249112D01*
X248512Y100594D02*
X249111D01*
X248512Y100794D02*
X249112D01*
X248512Y100994D02*
X249112D01*
X248512Y101094D02*
X249112D01*
X248512Y101294D02*
X249112D01*
X248512Y101494D02*
X249112D01*
X248512Y101594D02*
X249112D01*
X248512Y101794D02*
X249112D01*
X248512Y101994D02*
X249112D01*
X248512Y102094D02*
X249112D01*
X248512Y102294D02*
X249112D01*
X248512Y102494D02*
X248812D01*
X248512Y102594D02*
X248812Y102595D01*
X248512Y102794D02*
X248812D01*
X248512Y110394D02*
X249212D01*
X248512Y111894D02*
X249112D01*
X248512Y111994D02*
X249111D01*
X248612Y111694D02*
X249112Y111694D01*
X248612Y110594D02*
X249212Y110595D01*
X248612Y110694D02*
X249212Y110694D01*
X248612Y110794D02*
X249212D01*
X248612Y111094D02*
X249412D01*
X248612Y111194D02*
X249312Y111194D01*
X248612Y111294D02*
X249212D01*
X248612Y111394D02*
X249112D01*
X248612Y111494D02*
X249111D01*
X248612Y111594D02*
X249112D01*
X249012Y107194D02*
X251012D01*
X249212Y107094D02*
X250712Y107094D01*
X249312Y106994D02*
X250512D01*
X249412Y106894D02*
X250412D01*
X249412Y106794D02*
X250312Y106794D01*
X249512Y104694D02*
X250412D01*
X249512Y104994D02*
X250212Y104994D01*
X249512Y105194D02*
X250112Y105194D01*
X249512Y105494D02*
X250012D01*
X249512Y105694D02*
X250012D01*
X249512Y105994D02*
X250012D01*
X249512Y106494D02*
X250112D01*
X249512Y104494D02*
X250612Y104494D01*
X249512Y104594D02*
X250512D01*
X249512Y104794D02*
X250312D01*
X249512Y104894D02*
X250212Y104894D01*
X249512Y105094D02*
X250112Y105094D01*
X249512Y105294D02*
X250112D01*
X249512Y105394D02*
X250012D01*
X249512Y105594D02*
X250012D01*
X249512Y105794D02*
X250012D01*
X249512Y105894D02*
X250012D01*
X249512Y106094D02*
X250012D01*
X249512Y106194D02*
X250012D01*
X249512Y106294D02*
X250112D01*
X249512Y106394D02*
X250112Y106395D01*
X249512Y106594D02*
X250212D01*
X249512Y106694D02*
X250212D01*
X249912Y109694D02*
X251012D01*
X249912Y109894D02*
X250912D01*
X249912Y109794D02*
X251012Y109794D01*
X250012Y99394D02*
X266912D01*
X250012Y99894D02*
X266912D01*
X250012Y100394D02*
X266912D01*
X250012Y100894D02*
X266912D01*
X250012Y101194D02*
X266912D01*
X250012Y101394D02*
X266912D01*
X250012Y101694D02*
X266912D01*
X250012Y102194D02*
X266912D01*
X250012Y102694D02*
X266912D01*
X250012Y111794D02*
X250612D01*
X250012Y99094D02*
X266912D01*
X250012Y99194D02*
X266913D01*
X250012Y99294D02*
X266912D01*
X250012Y99494D02*
X266912Y99494D01*
X250012Y99594D02*
X266912D01*
X250012Y99694D02*
X266912Y99695D01*
X250012Y99794D02*
X266912D01*
X250012Y99994D02*
X266912Y99994D01*
X250012Y100094D02*
X266912D01*
X250012Y100194D02*
X266912Y100195D01*
X250012Y100294D02*
X266912D01*
X250012Y100494D02*
X266913D01*
X250012Y100594D02*
X266912D01*
X250012Y100694D02*
X266912Y100695D01*
X250012Y100794D02*
X266912D01*
X250012Y100994D02*
X266913D01*
X250012Y101094D02*
X266912Y101094D01*
X250012Y101294D02*
X266912D01*
X250012Y101494D02*
X266913D01*
X250012Y101594D02*
X266912Y101594D01*
X250012Y101794D02*
X266912D01*
X250012Y101894D02*
X266912D01*
X250012Y101994D02*
X266913D01*
X250012Y102094D02*
X266912Y102094D01*
X250012Y102294D02*
X266912Y102295D01*
X250012Y102394D02*
X266912D01*
X250012Y102494D02*
X266913D01*
X250012Y102594D02*
X266912Y102594D01*
X250012Y102794D02*
X266912D01*
X250012Y109994D02*
X250512D01*
X250012Y111594D02*
X250612Y111594D01*
X250012Y111694D02*
X250612Y111694D01*
X250012Y111894D02*
X250612D01*
X250111Y111494D02*
X250512D01*
X250112Y109594D02*
X250812D01*
X250112Y110794D02*
X252212D01*
X250112Y111994D02*
X250512D01*
X250312Y112094D02*
X250612Y110694D02*
X252212D01*
X250812Y110894D02*
X252312D01*
X250912Y105594D02*
X253612D01*
X250912Y105694D02*
X253612Y105694D01*
X250912Y105794D02*
X253612D01*
X250912Y105894D02*
X253612Y105895D01*
X250912Y105994D02*
X253612D01*
X250912Y112594D02*
X251312D01*
X251011Y106294D02*
X252012D01*
X251011Y105294D02*
X252011D01*
X251012Y105394D02*
X252012D01*
X251012Y105494D02*
X252112Y105494D01*
X251012Y106094D02*
X252012D01*
X251012Y106194D02*
X252012D01*
X251012Y108995D02*
X266912Y108994D01*
X251112Y106395D02*
X252012Y106394D01*
X251112Y106494D02*
X251912D01*
X251112Y110994D02*
X252312D01*
X251112Y112495D02*
X251212Y112494D01*
X251112Y105094D02*
X251912D01*
X251112Y105194D02*
X252012Y105195D01*
X251212Y111095D02*
X252412Y111094D01*
X251212Y104994D02*
X251812D01*
X251312Y110594D02*
X252213Y110594D01*
X251312Y106594D02*
X251812D01*
X251312Y111194D02*
X252512D01*
X251412Y111394D02*
X252812D01*
X251412Y104894D02*
X251612Y104895D01*
X251412Y109094D02*
X266913D01*
X251412Y111294D02*
X252712D01*
X251511Y111894D02*
X252312D01*
X251512Y111494D02*
X253113D01*
X251512Y111594D02*
X252312D01*
X251512Y111694D02*
X252312D01*
X251512Y111794D02*
X252312D01*
X251512Y110494D02*
X252212D01*
X251612Y109195D02*
X266912Y109194D01*
X251712Y109294D02*
X266912D01*
X251712Y110394D02*
X252212D01*
X251712Y111994D02*
X252312D01*
X251812Y109494D02*
X266912D01*
X251812Y110294D02*
X252212D01*
X251812Y109394D02*
X266912D01*
X251812Y110094D02*
X252312D01*
X251812Y110194D02*
X252312D01*
X251912Y109894D02*
X252512D01*
X251912Y112194D02*
X252412D01*
X251912Y109594D02*
X266913D01*
X251912Y109694D02*
X266912D01*
X251912Y109794D02*
X252712D01*
X251912Y109994D02*
X252412D01*
X251912Y112094D02*
X252312D01*
X251912Y112294D02*
X252412D01*
X251912Y112394D02*
X252612D01*
X251912Y112494D02*
X252712Y112494D01*
X251912Y112594D02*
X252912D01*
X252112Y104395D02*
X257812Y104394D01*
X252112Y107194D02*
X253613Y107194D01*
X252312Y104494D02*
X253912D01*
X252312Y107094D02*
X253112D01*
X252412Y104594D02*
X253712D01*
X252512Y106994D02*
X253112Y106994D01*
X252512Y104695D02*
X253712Y104694D01*
X252612Y104794D02*
X253612D01*
X252612Y106894D02*
X253112Y106894D01*
X252711Y106794D02*
X253112Y106794D01*
X252712Y104894D02*
X253613Y104894D01*
X252712Y104994D02*
X253612Y104994D01*
X252812Y105194D02*
X253612Y105194D01*
X252812Y105494D02*
X253612D01*
X252812Y106194D02*
X253613D01*
X252812Y106494D02*
X253612D01*
X252812Y106694D02*
X253113D01*
X252812Y105094D02*
X253612D01*
X252812Y105294D02*
X253612D01*
X252812Y105394D02*
X253613Y105394D01*
X252812Y106094D02*
X253612D01*
X252812Y106294D02*
X253612D01*
X252812Y106394D02*
X253612Y106395D01*
X252812Y106594D02*
X253112D01*
Y110594D02*
X253912Y110594D01*
X253112Y111594D02*
X253512Y111595D01*
X253112Y111694D02*
X254112D01*
X253212Y110394D02*
X253712D01*
X253212Y110694D02*
X254112D01*
X253212Y111894D02*
X254012Y111894D01*
X253212Y110494D02*
X253812D01*
X253212Y110794D02*
X254112D01*
X253212Y111794D02*
X254012D01*
X253312Y111994D02*
X253912D01*
X253412Y110895D02*
X254112Y110894D01*
X253512Y112095D02*
X253712Y112094D01*
X253613Y110994D02*
X254113D01*
X253812Y109794D02*
X266912D01*
X254012Y109894D02*
X254212D01*
X254012Y111095D02*
X254112Y111094D01*
X254212Y112594D02*
X255512D01*
X254512Y105094D02*
X255612D01*
X254512Y105594D02*
X255612D01*
X254512Y106094D02*
X255612D01*
X254512Y106394D02*
X255612D01*
X254512Y107295D02*
X266912D01*
X254512Y107394D02*
X266912D01*
X254512Y107795D02*
X255512Y107795D01*
X254512Y107894D02*
X255512D01*
X254512Y105194D02*
X255612D01*
X254512Y105394D02*
X255612Y105394D01*
X254512Y105494D02*
X255612D01*
X254512Y105694D02*
X255612D01*
X254512Y105894D02*
X255612Y105894D01*
X254512Y105994D02*
X255612D01*
X254512Y106194D02*
X255612D01*
X254512Y106494D02*
X255612D01*
X254512Y107194D02*
X257913D01*
X254512Y107494D02*
X255812D01*
X254512Y107594D02*
X255612Y107594D01*
X254512Y107694D02*
X255512D01*
X254512Y107994D02*
X255512D01*
X254512Y112494D02*
X255512D01*
X254513Y105294D02*
X255612D01*
X254513Y105794D02*
X255612D01*
X254513Y106294D02*
X255612D01*
X254612Y112394D02*
X255513D01*
X254712Y104994D02*
X255612D01*
X254712Y112294D02*
X255512D01*
X254812Y112194D02*
X255512D01*
X254912Y111794D02*
X255512D01*
X254912Y111994D02*
X255512D01*
X254912Y112094D02*
X255512Y112095D01*
X254912Y111894D02*
X255513D01*
X255012Y109894D02*
X255512Y109895D01*
X255012Y110694D02*
X255512Y110694D01*
X255012Y111095D02*
X255513Y111094D01*
X255012Y111194D02*
X255512D01*
X255012Y111595D02*
X255512Y111595D01*
X255012Y111694D02*
X255512D01*
X255012Y109994D02*
X255512D01*
X255012Y110194D02*
X255512D01*
X255012Y110294D02*
X255512D01*
X255012Y110394D02*
X255512D01*
X255012Y110494D02*
X255512D01*
X255012Y110794D02*
X255512D01*
X255012Y110894D02*
X255512D01*
X255012Y110994D02*
X255512D01*
X255012Y111294D02*
X255512D01*
X255012Y111394D02*
X255512D01*
X255012Y111494D02*
X255512D01*
X255013Y110094D02*
X255513D01*
X255013Y110594D02*
X255513D01*
X255212Y104594D02*
X255612D01*
X255212Y106594D02*
X255312D01*
X255212Y106894D02*
X255312D01*
X255212Y107094D02*
X255312Y107094D01*
X255212Y104494D02*
X255612D01*
X255212Y104694D02*
X255612D01*
X255212Y104794D02*
X255612D01*
X255212Y104894D02*
X255612Y104894D01*
X255212Y106694D02*
X255312D01*
X255212Y106794D02*
X255312D01*
X255212Y106994D02*
X255312D01*
X256212Y107494D02*
X266912D01*
X256312Y108394D02*
X266912D01*
X256412Y108294D02*
X266912Y108295D01*
X256412Y110195D02*
X266912Y110194D01*
X256412Y110294D02*
X266912D01*
X256412Y110794D02*
X266912D01*
X256412Y111294D02*
X266912D01*
X256412Y111794D02*
X266912D01*
X256412Y112094D02*
X266912Y112095D01*
X256412Y112294D02*
X266912D01*
X256412Y112495D02*
X266912Y112494D01*
X256412Y112594D02*
X266912D01*
X256412Y112995D02*
X266912Y112994D01*
X256412Y113094D02*
X266912D01*
X256412Y113495D02*
X266912Y113494D01*
X256412Y113594D02*
X266912D01*
X256412Y107594D02*
X266912Y107594D01*
X256412Y109894D02*
X266912D01*
X256412Y109994D02*
X266912Y109994D01*
X256412Y110094D02*
X266913D01*
X256412Y110394D02*
X266912D01*
X256412Y110494D02*
X266912Y110494D01*
X256412Y110594D02*
X266913D01*
X256412Y110694D02*
X266912Y110694D01*
X256412Y110894D02*
X266912Y110894D01*
X256412Y111094D02*
X266912Y111095D01*
X256412Y111194D02*
X266912D01*
X256412Y111394D02*
X266912Y111394D01*
X256412Y111594D02*
X266912Y111595D01*
X256412Y111694D02*
X266912D01*
X256412Y111894D02*
X266912Y111894D01*
X256412Y112194D02*
X266912D01*
X256412Y112394D02*
X266913D01*
X256412Y112694D02*
X266912D01*
X256412Y112794D02*
X266912Y112794D01*
X256412Y112894D02*
X266913D01*
X256412Y113194D02*
X266912D01*
X256412Y113294D02*
X266912Y113294D01*
X256412Y113394D02*
X266913D01*
X256412Y113694D02*
X266912D01*
X256413Y110994D02*
X266912D01*
X256413Y111494D02*
X266912D01*
X256413Y111994D02*
X266912D01*
X256512Y104594D02*
X257412D01*
X256512Y104894D02*
X257212D01*
X256512Y105094D02*
X257112D01*
X256512Y105394D02*
X257012D01*
X256512Y105594D02*
X257012D01*
X256512Y105894D02*
X257012D01*
X256512Y106094D02*
X257012D01*
X256512Y106394D02*
X257112D01*
X256512Y106594D02*
X257112D01*
X256512Y106894D02*
X257412D01*
X256512Y107694D02*
X266912D01*
X256512Y107894D02*
X266912D01*
X256512Y108194D02*
X266912D01*
X256512Y104694D02*
X257312Y104695D01*
X256512Y104994D02*
X257112D01*
X256512Y105194D02*
X257012D01*
X256512Y105494D02*
X257012D01*
X256512Y105694D02*
X257012D01*
X256512Y105994D02*
X257012D01*
X256512Y106194D02*
X257012D01*
X256512Y106494D02*
X257112D01*
X256512Y106694D02*
X257211D01*
X256512Y106994D02*
X257512D01*
X256512Y107994D02*
X266912D01*
X256513Y104494D02*
X257612D01*
X256513Y104794D02*
X257212D01*
X256513Y105294D02*
X257012D01*
X256513Y105794D02*
X257012D01*
X256513Y106294D02*
X257012D01*
X256513Y106794D02*
X257312Y106795D01*
X256513Y107094D02*
X257612D01*
X256513Y107794D02*
X266912Y107795D01*
X256513Y108094D02*
X266912Y108094D01*
X257912Y105994D02*
X259012D01*
X257912Y105494D02*
X259012Y105494D01*
X257912Y105594D02*
X259012D01*
X257912Y105794D02*
X259012D01*
X257912Y106094D02*
X259012D01*
X257913Y105394D02*
X259012Y105394D01*
X257913Y105694D02*
X259012D01*
X257913Y105894D02*
X259012D01*
X257913Y106194D02*
X259012D01*
X258012Y105294D02*
X258912D01*
X258012Y106394D02*
X258912D01*
X258012Y105194D02*
X258912D01*
X258012Y106294D02*
X258912D01*
X258112Y106494D02*
X258812D01*
X258112Y105094D02*
X258812D01*
X258212Y104994D02*
X258712D01*
X258212Y106595D02*
X258712D01*
X258312Y104894D02*
X258512D01*
X259012Y107194D02*
X261612D01*
X259112Y104394D02*
X266912D01*
X259312Y104495D02*
X260412Y104494D01*
X259312Y107094D02*
X260112Y107094D01*
X259412Y106994D02*
X260112Y106994D01*
X259512Y104594D02*
X260412D01*
X259512Y106894D02*
X260112D01*
X259612Y106794D02*
X260112D01*
X259612Y104695D02*
X260412Y104694D01*
X259712Y104895D02*
X260412Y104894D01*
X259712Y104794D02*
X260412D01*
X259712Y106694D02*
X260112Y106694D01*
X259812Y105094D02*
X260412D01*
X259812Y104994D02*
X260412D01*
X259812Y106494D02*
X260412D01*
X259812Y106594D02*
X260112D01*
X259912Y105194D02*
X260412D01*
X259912Y105494D02*
X260412D01*
X259912Y105694D02*
X260412D01*
X259912Y105994D02*
X260412D01*
X259912Y106194D02*
X260412D01*
X259912Y105294D02*
X260412D01*
X259912Y105394D02*
X260412D01*
X259912Y105594D02*
X260412D01*
X259912Y105794D02*
X260412D01*
X259912Y105894D02*
X260412D01*
X259912Y106094D02*
X260412D01*
X259912Y106294D02*
X260412D01*
X259912Y106394D02*
X260412D01*
X261212Y106994D02*
X261212Y107094D02*
X261312D01*
Y104594D02*
X262312D01*
X261312Y104794D02*
X262312D01*
X261312Y104894D02*
X262312Y104894D01*
X261312Y105094D02*
X262312D01*
X261312Y105294D02*
X262312D01*
X261312Y105394D02*
X262312Y105394D01*
X261312Y105594D02*
X262312D01*
X261312Y105794D02*
X262312D01*
X261312Y105894D02*
X262312D01*
X261312Y106094D02*
X262312D01*
X261312Y104494D02*
X262312D01*
X261312Y104694D02*
X262312D01*
X261312Y104994D02*
X262312D01*
X261312Y105194D02*
X262312D01*
X261312Y105494D02*
X262312D01*
X261312Y105694D02*
X262312D01*
X261312Y105994D02*
X262312D01*
X261312Y106194D02*
X262312D01*
X261312Y106294D02*
X262212D01*
X261412Y106394D02*
X262212Y106395D01*
X261512Y106494D02*
X262212D01*
X261612Y106594D02*
X262112D01*
X262612Y107194D02*
X266912D01*
X262812Y107094D02*
X266912Y107094D01*
X262912Y106994D02*
X266912D01*
X263012Y106894D02*
X266912Y106894D01*
X263112Y104594D02*
X266912D01*
X263112Y105094D02*
X266912D01*
X263112Y105594D02*
X266912D01*
X263112Y104495D02*
X266912D01*
X263112Y104694D02*
X266912D01*
X263112Y104894D02*
X266912D01*
X263112Y104994D02*
X266912D01*
X263112Y105194D02*
X266912D01*
X263112Y105394D02*
X266912D01*
X263112Y105494D02*
X266912D01*
X263112Y105694D02*
X266912D01*
X263112Y105894D02*
X266912D01*
X263112Y105994D02*
X266912D01*
X263112Y106095D02*
X266912Y106094D01*
X263112Y106194D02*
X266912D01*
X263112Y106394D02*
X266912D01*
X263112Y106494D02*
X266912D01*
X263112Y106594D02*
X266912D01*
X263112Y106694D02*
X266912D01*
X263113Y104794D02*
X266913D01*
X263113Y105294D02*
X266913D01*
X263113Y105794D02*
X266913D01*
X263113Y106294D02*
X266913D01*
X263113Y106794D02*
X266913D01*
D02*
D71*
X212662Y97344D02*
X218912Y91094D01*
X212662Y143594D02*
Y91094D01*
D02*
D20*
X116849Y49329D02*
X137349D01*
X137347Y56827D02*
Y49346D01*
X143166Y54837D02*
X143796Y54522D01*
X144741D01*
X145370Y54837D01*
X145685Y55467D01*
Y55781D01*
X145370Y56411D01*
X144741Y56726D01*
X143166D01*
Y58301D01*
X145685D01*
X148520Y54837D02*
X149150Y54522D01*
X149780D01*
X150410Y54837D01*
X150725Y55467D01*
Y57356D01*
X150410Y57986D01*
X149780Y58301D01*
X149150D01*
X148520Y57986D01*
X148205Y57356D01*
Y55467D01*
X148520Y54837D01*
X150410Y57986D01*
X189924Y91062D02*
Y143546D01*
X355420D01*
Y91062D01*
X189924D01*
X194922D02*
X189922Y96062D01*
X196717Y99864D02*
Y97344D01*
X194512Y99549D01*
X193882Y99864D01*
X193252Y99549D01*
X192937Y98919D01*
Y97974D01*
X193252Y97344D01*
X196717Y102384D02*
X192937Y104904D01*
Y102384D01*
X196087Y110573D02*
X196402Y110258D01*
X196717Y109628D01*
Y108683D01*
X196402Y108053D01*
X196087Y107738D01*
X195457Y107423D01*
X194197D01*
X193567Y107738D01*
X193252Y108053D01*
X192937Y108683D01*
Y109628D01*
X193252Y110258D01*
X193567Y110573D01*
X196402Y112778D02*
X196717Y113407D01*
Y114037D01*
X196402Y114667D01*
X195772Y114982D01*
X193882D01*
X193252Y114667D01*
X192937Y114037D01*
Y113407D01*
X193252Y112778D01*
X193882Y112463D01*
X195772D01*
X196402Y112778D01*
X193252Y114667D01*
X196717Y118132D02*
Y119392D01*
Y118762D02*
X192937D01*
X193567Y118132D01*
X196402Y122856D02*
X196717Y123486D01*
Y124116D01*
X196402Y124746D01*
X195772Y125061D01*
X193882D01*
X193252Y124746D01*
X192937Y124116D01*
Y123486D01*
X193252Y122856D01*
X193882Y122541D01*
X195772D01*
X196402Y122856D01*
X193252Y124746D01*
X195457Y127581D02*
Y130100D01*
X196717Y134195D02*
X192937D01*
X195457Y132620D01*
Y135140D01*
X196402Y137974D02*
X196717Y138604D01*
Y139234D01*
X196402Y139864D01*
X195772Y140179D01*
X193882D01*
X193252Y139864D01*
X192937Y139234D01*
Y138604D01*
X193252Y137974D01*
X193882Y137659D01*
X195772D01*
X196402Y137974D01*
X193252Y139864D01*
X202764Y99864D02*
Y97344D01*
X200559Y99549D01*
X199930Y99864D01*
X199300Y99549D01*
X198985Y98919D01*
Y97974D01*
X199300Y97344D01*
X202764Y102384D02*
X198985Y104904D01*
Y102384D01*
X202764Y107423D02*
X198985D01*
Y110573D01*
X200874Y109943D02*
Y107423D01*
X202449Y112778D02*
X202764Y113407D01*
Y114037D01*
X202449Y114667D01*
X201819Y114982D01*
X199930D01*
X199300Y114667D01*
X198985Y114037D01*
Y113407D01*
X199300Y112778D01*
X199930Y112463D01*
X201819D01*
X202449Y112778D01*
X199300Y114667D01*
X202764Y118132D02*
Y119392D01*
Y118762D02*
X198985D01*
X199615Y118132D01*
X202449Y122856D02*
X202764Y123486D01*
Y124116D01*
X202449Y124746D01*
X201819Y125061D01*
X199930D01*
X199300Y124746D01*
X198985Y124116D01*
Y123486D01*
X199300Y122856D01*
X199930Y122541D01*
X201819D01*
X202449Y122856D01*
X199300Y124746D01*
X201504Y127581D02*
Y130100D01*
X202764Y134195D02*
X198985D01*
X201504Y132620D01*
Y135140D01*
X202449Y137974D02*
X202764Y138604D01*
Y139234D01*
X202449Y139864D01*
X201819Y140179D01*
X199930D01*
X199300Y139864D01*
X198985Y139234D01*
Y138604D01*
X199300Y137974D01*
X199930Y137659D01*
X201819D01*
X202449Y137974D01*
X199300Y139864D01*
X217967Y105799D02*
Y103280D01*
X215762Y105484D01*
X215132Y105799D01*
X214502Y105484D01*
X214187Y104854D01*
Y103909D01*
X214502Y103280D01*
X217967Y108319D02*
X214187Y110839D01*
Y108319D01*
X217337Y116508D02*
X217652Y116193D01*
X217967Y115563D01*
Y114618D01*
X217652Y113988D01*
X217337Y113673D01*
X216707Y113358D01*
X215447D01*
X214817Y113673D01*
X214502Y113988D01*
X214187Y114618D01*
Y115563D01*
X214502Y116193D01*
X214817Y116508D01*
X217652Y118713D02*
X217967Y119343D01*
Y119972D01*
X217652Y120602D01*
X217022Y120917D01*
X216392Y120602D01*
X216077Y119972D01*
Y119343D01*
Y119972D02*
X215762Y120602D01*
X215132Y120917D01*
X214502Y120602D01*
X214187Y119972D01*
Y119343D01*
X214502Y118713D01*
X217967Y125957D02*
Y123437D01*
X215762Y125642D01*
X215132Y125957D01*
X214502Y125642D01*
X214187Y125012D01*
Y124067D01*
X214502Y123437D01*
X217967Y128476D02*
X214187Y131626D01*
X217022Y133516D02*
X216392Y133831D01*
X216077Y134461D01*
Y135091D01*
X216392Y135720D01*
X217022Y136035D01*
X217652Y135720D01*
X217967Y135091D01*
Y134461D01*
X217652Y133831D01*
X217022Y133516D01*
X216077D01*
X215132Y133831D01*
X214502Y134461D01*
X214187Y135091D01*
X217967Y140130D02*
X214187D01*
X216707Y138555D01*
Y141075D01*
X224014Y108949D02*
Y110209D01*
Y109579D02*
X220235D01*
X220865Y108949D01*
X224014Y115878D02*
Y113358D01*
X221809Y115563D01*
X221180Y115878D01*
X220550Y115563D01*
X220235Y114933D01*
Y113988D01*
X220550Y113358D01*
X222124Y119343D02*
Y119972D01*
X221809Y120602D01*
X221180Y120917D01*
X220550Y120602D01*
X220235Y119972D01*
Y119343D01*
X220550Y118713D01*
X221180Y118398D01*
X221809Y118713D01*
X222124Y119343D01*
X222439Y118713D01*
X223069Y118398D01*
X223699Y118713D01*
X224014Y119343D01*
Y119972D01*
X223699Y120602D01*
X223069Y120917D01*
X222439Y120602D01*
X222124Y119972D01*
X224014Y123437D02*
X220235Y126587D01*
X224014Y130996D02*
Y128476D01*
X221809Y130681D01*
X221180Y130996D01*
X220550Y130681D01*
X220235Y130051D01*
Y129106D01*
X220550Y128476D01*
X223699Y133516D02*
X224014Y134146D01*
Y135091D01*
X223699Y135720D01*
X223069Y136035D01*
X222754D01*
X222124Y135720D01*
X221809Y135091D01*
Y133516D01*
X220235D01*
Y136035D01*
X223069Y138555D02*
X222439Y138870D01*
X222124Y139500D01*
Y140130D01*
X222439Y140760D01*
X223069Y141075D01*
X223699Y140760D01*
X224014Y140130D01*
Y139500D01*
X223699Y138870D01*
X223069Y138555D01*
X222124D01*
X221180Y138870D01*
X220550Y139500D01*
X220235Y140130D01*
X230061Y115878D02*
Y113358D01*
X227857Y115563D01*
X227227Y115878D01*
X226597Y115563D01*
X226282Y114933D01*
Y113988D01*
X226597Y113358D01*
X230061Y118398D02*
X226282Y120917D01*
Y118398D01*
X230061Y123437D02*
X226282D01*
Y126587D01*
X228172Y125957D02*
Y123437D01*
X229746Y128476D02*
X230061Y129106D01*
Y130051D01*
X229746Y130681D01*
X229117Y130996D01*
X228802D01*
X228172Y130681D01*
X227857Y130051D01*
Y128476D01*
X226282D01*
Y130996D01*
X230061Y134146D02*
Y135406D01*
Y134776D02*
X226282D01*
X226912Y134146D01*
X230061Y141075D02*
Y138555D01*
X227857Y140760D01*
X227227Y141075D01*
X226597Y140760D01*
X226282Y140130D01*
Y139185D01*
X226597Y138555D01*
X268912Y114850D02*
Y119869D01*
X271004Y117359D01*
X273095Y119869D01*
Y114850D01*
X275605Y116104D02*
X276023Y115268D01*
X276860Y114850D01*
X278533D01*
X279370Y115268D01*
X279788Y116104D01*
X279370Y116941D01*
X278533Y117359D01*
X276860D01*
X276023Y117778D01*
X275605Y118614D01*
X276023Y119451D01*
X276860Y119869D01*
X278533D01*
X279370Y119451D01*
X279788Y118614D01*
X282298Y114850D02*
X286481Y119869D01*
X282298D02*
X286481Y114850D01*
X268912Y108073D02*
X269330Y108909D01*
X270167Y109328D01*
X271004D01*
X271840Y108909D01*
X272258Y108073D01*
X271840Y107236D01*
X271004Y106818D01*
X270167D01*
X269330Y107236D01*
X268912Y108073D01*
Y109328D01*
X269330Y110583D01*
X270167Y111419D01*
X271004Y111838D01*
X277696Y106818D02*
Y111838D01*
X275605Y108491D01*
X278951D01*
X282298Y106818D02*
Y111838D01*
Y109328D02*
X283553D01*
X286481Y111838D01*
X283553Y109328D02*
X286481Y106818D01*
X295683Y108073D02*
X296102Y107236D01*
X296939Y106818D01*
X298612D01*
X299448Y107236D01*
X299867Y108073D01*
X299448Y108909D01*
X298612Y109328D01*
X296939D01*
X296102Y109746D01*
X295683Y110583D01*
X296102Y111419D01*
X296939Y111838D01*
X298612D01*
X299448Y111419D01*
X299867Y110583D01*
X304050Y106818D02*
Y110165D01*
Y111419D02*
X309069Y106818D02*
Y110165D01*
Y109746D02*
X309488Y110165D01*
X310324D01*
X310743Y109746D01*
Y108491D01*
Y109746D02*
X311161Y110165D01*
X311998D01*
X312416Y109746D01*
Y106818D01*
X315762Y110165D02*
Y105563D01*
Y108073D02*
X316181Y107236D01*
X317017Y106818D01*
X317854D01*
X318691Y107236D01*
X319109Y108073D01*
Y108909D01*
X318691Y109746D01*
X317854Y110165D01*
X317017D01*
X316181Y109746D01*
X315762Y108909D01*
Y108073D01*
X324547Y106818D02*
X324128D01*
Y111838D01*
X332494Y107236D02*
X332076Y106818D01*
X331240D01*
X330403D01*
X329567Y107236D01*
X329148Y108073D01*
Y109328D01*
X329567Y109746D01*
X330403Y110165D01*
X331240D01*
X332076Y109746D01*
X332494Y109328D01*
Y108909D01*
X332076Y108491D01*
X331240Y108073D01*
X330403D01*
X329567Y108491D01*
X329148Y108909D01*
X268912Y98787D02*
Y103806D01*
X271840D01*
X272677Y103388D01*
X273095Y102551D01*
X272677Y101715D01*
X271840Y101296D01*
X268912D01*
X271840D02*
X273095Y98787D01*
X275605Y100460D02*
Y102133D01*
X276023Y102970D01*
X276441Y103388D01*
X277278Y103806D01*
X278115D01*
X278951Y103388D01*
X279370Y102970D01*
X279788Y102133D01*
Y100460D01*
X279370Y99623D01*
X278951Y99205D01*
X278115Y98787D01*
X277278D01*
X276441Y99205D01*
X276023Y99623D01*
X275605Y100460D01*
X282298Y98787D02*
Y103806D01*
X284389Y101296D01*
X286481Y103806D01*
Y98787D01*
X299867Y99623D02*
X299448Y99205D01*
X298612Y98787D01*
X297357D01*
X296520Y99205D01*
X296102Y99623D01*
X295683Y100460D01*
Y102133D01*
X296102Y102970D01*
X296520Y103388D01*
X297357Y103806D01*
X298612D01*
X299448Y103388D01*
X299867Y102970D01*
X302376Y101715D02*
X303213Y102133D01*
X304468D01*
X305305Y101715D01*
X305723Y100878D01*
Y99623D01*
X305305Y99205D01*
X304468Y98787D01*
X303631D01*
X302795Y99205D01*
X302376Y99623D01*
Y100041D01*
X302795Y100460D01*
X303631Y100878D01*
X304468D01*
X305305Y100460D01*
X305723Y100041D01*
Y99623D02*
Y98787D01*
X309069D02*
Y102133D01*
Y100878D02*
X309488Y101715D01*
X310324Y102133D01*
X311161D01*
X311998Y101715D01*
X316459Y102133D02*
X318411D01*
X317435Y102970D02*
Y99205D01*
X317854Y98787D01*
X318272D01*
X318691Y99205D01*
X322455Y98787D02*
Y102133D01*
Y100878D02*
X322874Y101715D01*
X323710Y102133D01*
X324547D01*
X325383Y101715D01*
X330821Y98787D02*
Y102133D01*
Y103388D02*
X339187Y100878D02*
X338769Y101715D01*
X337933Y102133D01*
X337096D01*
X336259Y101715D01*
X335841Y100878D01*
Y100041D01*
X336259Y99205D01*
X337096Y98787D01*
X337933D01*
X338769Y99205D01*
X339187Y100041D01*
Y98787D02*
Y103806D01*
X345880Y100878D02*
X345462Y101715D01*
X344626Y102133D01*
X343789D01*
X342952Y101715D01*
X342534Y100878D01*
Y100460D01*
X342952Y99623D01*
X343789Y99205D01*
X344626D01*
X345462Y99623D01*
X345880Y100460D01*
Y102133D02*
Y98787D01*
X345462Y97950D01*
X344626Y97531D01*
X343370D01*
X342534Y97950D01*
X352573Y99205D02*
X352155Y98787D01*
X351319D01*
X350482D01*
X349645Y99205D01*
X349227Y100041D01*
Y101296D01*
X349645Y101715D01*
X350482Y102133D01*
X351319D01*
X352155Y101715D01*
X352573Y101296D01*
Y100878D01*
X352155Y100460D01*
X351319Y100041D01*
X350482D01*
X349645Y100460D01*
X349227Y100878D01*
X390685Y52022D02*
X388166D01*
X390370Y54226D01*
X390685Y54856D01*
X390370Y55486D01*
X389741Y55801D01*
X388796D01*
X388166Y55486D01*
X394916Y56827D02*
Y49346D01*
X415416Y49327D02*
X394916D01*
D02*
D21*
X175162Y81174D02*
X176392Y84127D01*
X177622Y81174D01*
X175654Y82405D02*
X177130D01*
X179591Y81174D02*
X180575D01*
X180083D02*
Y84127D01*
X179591Y83635D01*
X183774Y82651D02*
X184266D01*
X184758Y82897D01*
X185004Y83389D01*
X184758Y83881D01*
X184266Y84127D01*
X183774D01*
X183282Y83881D01*
X183036Y83389D01*
X183282Y82897D01*
X183774Y82651D01*
X183282Y82405D01*
X183036Y81913D01*
X183282Y81420D01*
X183774Y81174D01*
X184266D01*
X184758Y81420D01*
X185004Y81913D01*
X184758Y82405D01*
X184266Y82651D01*
X175162Y100144D02*
X176392Y103097D01*
X177622Y100144D01*
X175654Y101375D02*
X177130D01*
X179591Y100144D02*
X180575D01*
X180083D02*
Y103097D01*
X179591Y102605D01*
X183036Y100391D02*
X183528Y100144D01*
X184266D01*
X184758Y100391D01*
X185004Y100883D01*
Y101129D01*
X184758Y101621D01*
X184266Y101867D01*
X183036D01*
Y103097D01*
X185004D01*
X175162Y119333D02*
X176392Y122285D01*
X177622Y119333D01*
X175654Y120563D02*
X177130D01*
X179591Y119333D02*
X180575D01*
X180083D02*
Y122285D01*
X179591Y121793D01*
X184266Y119333D02*
Y122285D01*
X183036Y120317D01*
X185004D01*
X175162Y139333D02*
X176392Y142285D01*
X177622Y139333D01*
X175654Y140563D02*
X177130D01*
X179591Y139333D02*
X180575D01*
X180083D02*
Y142285D01*
X179591Y141793D01*
X183036Y139333D02*
X185004Y142285D01*
X183036D01*
X363872Y149825D02*
X363626Y149579D01*
X363134Y149333D01*
X362396D01*
X361904Y149579D01*
X361658Y149825D01*
X361412Y150317D01*
Y151301D01*
X361658Y151793D01*
X361904Y152039D01*
X362396Y152285D01*
X363134D01*
X363626Y152039D01*
X363872Y151793D01*
X365349Y150071D02*
X365595Y149579D01*
X366087Y149333D01*
X367071D01*
X367563Y149579D01*
X367809Y150071D01*
X367563Y150563D01*
X367071Y150809D01*
X366087D01*
X365595Y151055D01*
X365349Y151547D01*
X365595Y152039D01*
X366087Y152285D01*
X367071D01*
X367563Y152039D01*
X367809Y151547D01*
X361904Y144608D02*
X362888D01*
X362396D02*
Y147561D01*
X361904Y147069D01*
X367317Y144608D02*
X365349D01*
X367071Y146331D01*
X367317Y146823D01*
X367071Y147315D01*
X366579Y147561D01*
X365841D01*
X365349Y147315D01*
X367317Y135159D02*
X365349D01*
X367071Y136882D01*
X367317Y137374D01*
X367071Y137866D01*
X366579Y138112D01*
X365841D01*
X365349Y137866D01*
X365841Y125711D02*
X366825D01*
X366333D02*
Y128663D01*
X365841Y128171D01*
X361412Y116262D02*
Y119215D01*
X363134D01*
X363626Y118969D01*
X363872Y118476D01*
X363626Y117984D01*
X363134Y117738D01*
X361412D01*
X363134D02*
X363872Y116262D01*
X365349D02*
Y119215D01*
X366825D01*
X367317Y118969D01*
X367563Y118722D01*
X367809Y118230D01*
Y117246D01*
X367563Y116754D01*
X367317Y116508D01*
X366825Y116262D01*
X365349D01*
X0Y0D02*
M02*
