G05
M48
;#@! TF.GenerationSoftware,DesignSpark,DesignSpark PCB PRO,10.0.5299
;#@! TF.CreationDate,2021-08-13T17:04:56--9:00*
;#@! TF.FileFunction,Plated,1,2,Buried
;FILE_FORMAT=3:5
;TYPE=PLATED
INCH,TZ
FMAT,2
T1C000.01181
T2C000.01600
T3C000.02984
T4C000.03500
T5C000.16535
T6C000.18504
%
T001
X1.70162Y0.77344
X1.70162Y1.34844
X1.95162Y1.02344
X1.95162Y1.19844
X2.02662Y0.58594
X2.13912Y0.58594
X2.23912Y0.58594
X2.33912Y0.58594
X2.41412Y0.58594
X2.51412Y0.58594
X2.58912Y0.58594
X2.66412Y0.58594
X2.71412Y0.58594
X2.72662Y1.22344
X2.80162Y0.58594
X2.90162Y0.61094
X2.96412Y0.67344
X2.97662Y1.13594
X2.97662Y1.18594
X3.00162Y0.71094
X3.01412Y0.63594
X3.03912Y0.81094
X3.26166Y0.63594
X3.78912Y1.12344
X3.83912Y1.44844
X3.85162Y1.27344
T002
X1.45162Y0.67344
X1.45162Y1.29844
X1.45162Y1.57344
X1.76199Y0.60593
X1.85162Y1.57344
X1.86183Y0.60343
X2.25162Y1.57344
X2.42662Y1.29844
X2.62662Y1.29844
X2.65162Y1.57344
X2.82662Y1.29844
X3.02662Y1.29844
X3.05162Y1.57344
X3.22662Y1.29844
X3.33912Y0.66094
X3.42662Y1.29844
X3.45162Y1.57344
X3.60162Y0.66094
X3.61412Y1.03594
X3.62662Y1.29844
T003
X1.97672Y0.87378
X1.97672Y1.47378
X2.07672Y0.87378
X2.07672Y1.47378
X2.17672Y0.87378
X2.17672Y1.47378
X2.27672Y0.87378
X2.27672Y1.47378
X2.37672Y0.87378
X2.37672Y1.47378
X2.47672Y0.87378
X2.47672Y1.47378
X2.57672Y0.87378
X2.57672Y1.47378
X2.67672Y0.87378
X2.67672Y1.47378
X2.77672Y0.87378
X2.77672Y1.47378
X2.87672Y0.87378
X2.87672Y1.47378
X2.97672Y0.87378
X2.97672Y1.47378
X3.07672Y0.87378
X3.07672Y1.47378
X3.17672Y0.87378
X3.17672Y1.47378
X3.27672Y0.87378
X3.27672Y1.47378
X3.37672Y0.87378
X3.37672Y1.47378
X3.47672Y0.87378
X3.47672Y1.47378
T004
X1.57662Y1.47344
X1.77662Y1.47344
T005
X1.56441Y1.08132
X3.75890Y0.88447
T006
X1.55615Y0.91596
X3.76717Y0.72699
M30
